0
SECTION
2
HEADER
9
$INSUNITS
70
4
0
ENDSEC
0
SECTION
2
TABLES
0
TABLE
2
LTYPE
0
LTYPE
72
65
70
64
2
CONTINUOUS
3
______
73
0
40
0
0
ENDTAB
0
TABLE
2
LAYER
0
ENDTAB
0
ENDSEC
0
SECTION
2
ENTITIES
0
LINE
8
front_outsideCutPath
10
0
20
48.6
11
0
21
3
0
LINE
8
front_outsideCutPath
10
0
20
3
11
121.6
21
3
0
LINE
8
front_outsideCutPath
10
121.6
20
3
11
121.6
21
48.6
0
LINE
8
front_outsideCutPath
10
121.6
20
48.6
11
0
21
48.6
0
LINE
8
front_labelLayer
10
53.2452734
20
27.2362294
11
53.2452734
21
26.6617762
0
LINE
8
front_labelLayer
10
53.2452734
20
26.6617762
11
52.0028516
21
26.6617762
0
LINE
8
front_labelLayer
10
52.0028516
20
26.6617762
11
52.0028516
21
22.3556044
0
LINE
8
front_labelLayer
10
52.0028516
20
22.3556044
11
51.2636328
21
22.3556044
0
LINE
8
front_labelLayer
10
51.2636328
20
22.3556044
11
51.2636328
21
26.6617762
0
LINE
8
front_labelLayer
10
51.2636328
20
26.6617762
11
50.3908203
21
26.6617762
0
LINE
8
front_labelLayer
10
50.3908203
20
26.6617762
11
50.3908203
21
26.9957606
0
LINE
8
front_labelLayer
10
50.3908203
20
26.9957606
11
51.2636328
21
27.2629481
0
LINE
8
front_labelLayer
10
51.2636328
20
27.2629481
11
51.2636328
21
27.5345887
0
LINE
8
front_labelLayer
10
53.7440234
20
29.1777919
11
53.5525391
21
28.5855262
0
LINE
8
front_labelLayer
10
52.0028516
20
27.5524012
11
52.0028516
21
27.2362294
0
LINE
8
front_labelLayer
10
52.0028516
20
27.2362294
11
53.2452734
21
27.2362294
0
ARC
8
front_labelLayer
10
54.2594236
20
27.5690308
40
2.9959887
50
167.5775945
51
180.6586902
0
ARC
8
front_labelLayer
10
52.8506138
20
27.8974839
40
1.5496068
50
141.7433856
51
168.2322083
0
ARC
8
front_labelLayer
10
52.6212303
20
28.017205
40
1.2962448
50
98.2551504
51
139.6203374
0
ARC
8
front_labelLayer
10
52.8226337
20
27.086792
40
2.2468966
50
89.6697175
51
99.9314119
0
ARC
8
front_labelLayer
10
52.823193
20
26.9532212
40
2.3804623
50
81.5640822
51
89.7017118
0
ARC
8
front_labelLayer
10
52.6558329
20
25.7856414
40
3.5599666
50
75.9740413
51
81.6564369
0
ARC
8
front_labelLayer
10
52.3686545
20
24.5945115
40
4.7851956
50
73.296342
51
76.0945847
0
ARC
8
front_labelLayer
10
52.440999
20
25.1724024
40
3.5895593
50
71.9613057
51
76.5918846
0
ARC
8
front_labelLayer
10
52.7194739
20
26.3537384
40
2.3758506
50
76.518322
51
83.0217447
0
ARC
8
front_labelLayer
10
52.8164764
20
27.133831
40
1.5897524
50
83.0761089
51
89.7927581
0
ARC
8
front_labelLayer
10
52.8132825
20
27.7266941
40
0.9969191
50
89.4859529
51
103.4197464
0
ARC
8
front_labelLayer
10
52.7234028
20
28.0720027
40
0.6402208
50
102.767737
51
144.3380239
0
ARC
8
front_labelLayer
10
52.9044691
20
27.9555027
40
0.8553212
50
145.0688267
51
162.1802071
0
ARC
8
front_labelLayer
10
53.5252876
20
27.7466272
40
1.5103021
50
161.8437471
51
171.7847464
0
ARC
8
front_labelLayer
10
54.5378594
20
27.5945401
40
2.534222
50
171.6527643
51
178.4383733
0
ARC
8
front_labelLayer
10
55.4933923
20
27.5538064
40
3.490541
50
178.1974357
51
180.0230647
0
LINE
8
front_labelLayer
10
56.9458203
20
27.2718544
11
56.8433984
21
26.5860731
0
LINE
8
front_labelLayer
10
54.8751172
20
24.9740419
11
54.8751172
21
22.3556044
0
LINE
8
front_labelLayer
10
54.8751172
20
22.3556044
11
54.1358984
21
22.3556044
0
LINE
8
front_labelLayer
10
54.1358984
20
22.3556044
11
54.1358984
21
27.2362294
0
LINE
8
front_labelLayer
10
54.1358984
20
27.2362294
11
54.7459766
21
27.2362294
0
LINE
8
front_labelLayer
10
54.7459766
20
27.2362294
11
54.8305859
21
26.332245
0
LINE
8
front_labelLayer
10
54.8305859
20
26.332245
11
54.8662109
21
26.332245
0
ARC
8
front_labelLayer
10
56.3700505
20
23.931668
40
3.3936323
50
84.9923181
51
90.1281367
0
ARC
8
front_labelLayer
10
56.4515445
20
24.8447512
40
2.4769211
50
78.4892081
51
85.0265662
0
ARC
8
front_labelLayer
10
56.1352154
20
23.4060123
40
3.257961
50
77.4453926
51
81.6360136
0
ARC
8
front_labelLayer
10
56.2771642
20
24.384442
40
2.2692906
50
81.5884304
51
87.191655
0
ARC
8
front_labelLayer
10
56.3079984
20
24.9191149
40
1.7337553
50
87.343698
51
89.9661249
0
ARC
8
front_labelLayer
10
56.3008313
20
25.3720486
40
1.2808476
50
89.6335422
51
137.0880707
0
ARC
8
front_labelLayer
10
56.6151117
20
25.0186179
40
1.7522429
50
135.6207958
51
138.8377681
0
ARC
8
front_labelLayer
10
56.5691128
20
25.0635217
40
1.6880609
50
138.9575697
51
174.5422366
0
ARC
8
front_labelLayer
10
57.1188905
20
24.9774988
40
2.2437759
50
173.6907908
51
180.0882757
0
ARC
8
front_labelLayer
10
57.0411503
20
25.1068938
40
2.4963668
50
139.4139294
51
150.6032825
0
ARC
8
front_labelLayer
10
56.5935506
20
25.4904396
40
1.9069154
50
124.2321508
51
139.4161017
0
ARC
8
front_labelLayer
10
56.3542225
20
25.8517039
40
1.4736111
50
89.6796799
51
124.4405638
0
ARC
8
front_labelLayer
10
58.2530723
20
24.7746293
40
3.8183817
50
349.1762173
51
0.386248
0
ARC
8
front_labelLayer
10
59.5386398
20
24.5183512
40
2.5075801
50
330.250704
51
349.4116382
0
ARC
8
front_labelLayer
10
59.934279
20
24.3127107
40
2.0621208
50
318.1439526
51
329.7566713
0
ARC
8
front_labelLayer
10
60.0056747
20
24.2554941
40
1.9707715
50
278.8959105
51
317.9979118
0
ARC
8
front_labelLayer
10
59.8216901
20
25.1369785
40
2.8704639
50
269.7502855
51
279.8033267
0
ARC
8
front_labelLayer
10
59.7918508
20
24.6403132
40
2.3738346
50
253.5436776
51
270.4182597
0
ARC
8
front_labelLayer
10
59.7128324
20
24.3346502
40
2.0583365
50
238.8115701
51
253.2428251
0
ARC
8
front_labelLayer
10
59.6873269
20
24.2833596
40
2.0012564
50
207.7946828
51
238.6758102
0
ARC
8
front_labelLayer
10
60.0534104
20
24.5075554
40
2.4298034
50
205.6561188
51
208.44605
0
ARC
8
front_labelLayer
10
60.3351436
20
24.6249301
40
2.7346276
50
188.9102583
51
205.3171338
0
ARC
8
front_labelLayer
10
61.2850484
20
24.7858125
40
3.6980066
50
179.7744501
51
189.0932808
0
ARC
8
front_labelLayer
10
61.4251845
20
24.8263658
40
3.8382022
50
169.244294
51
180.3880619
0
ARC
8
front_labelLayer
10
60.1217584
20
25.0840063
40
2.5096131
50
150.7111554
51
169.4695495
0
ARC
8
front_labelLayer
10
59.7056545
20
25.2976935
40
2.0422359
50
138.1759181
51
150.2287967
0
ARC
8
front_labelLayer
10
59.636452
20
25.3507979
40
1.9552649
50
99.1759461
51
137.9832719
0
ARC
8
front_labelLayer
10
59.8269551
20
24.4542678
40
2.8710554
50
89.7326548
51
100.0759851
0
ARC
8
front_labelLayer
10
59.865029
20
24.8414534
40
2.4839611
50
73.5222651
51
90.5692261
0
ARC
8
front_labelLayer
10
60.0106993
20
25.3707098
40
1.9351511
50
41.1445518
51
73.2133916
0
ARC
8
front_labelLayer
10
59.7326272
20
25.1317101
40
2.3018083
50
13.5014285
51
41.0703388
0
ARC
8
front_labelLayer
10
58.658304
20
24.850573
40
3.4121531
50
1.1277168
51
13.8800131
0
ARC
8
front_labelLayer
10
57.7323659
20
24.8009759
40
4.3390013
50
359.9919986
51
1.5418766
0
ARC
8
front_labelLayer
10
62.0963468
20
24.7811606
40
3.7433882
50
179.7059824
51
187.9160999
0
ARC
8
front_labelLayer
10
60.7233902
20
24.5839362
40
2.3563611
50
187.7639454
51
200.0977001
0
ARC
8
front_labelLayer
10
59.9670323
20
24.306805
40
1.5508311
50
200.0845883
51
216.9131523
0
ARC
8
front_labelLayer
10
59.6908359
20
24.1095873
40
1.2115771
50
217.3009289
51
261.7099356
0
ARC
8
front_labelLayer
10
59.8190558
20
24.7214335
40
1.8359244
50
260.5032975
51
270.2476804
0
ARC
8
front_labelLayer
10
59.8435291
20
24.6024596
40
1.717013
50
269.448163
51
284.7255892
0
ARC
8
front_labelLayer
10
59.9794545
20
24.0983573
40
1.1949221
50
284.5662493
51
322.6333674
0
ARC
8
front_labelLayer
10
59.6616554
20
24.3279535
40
1.5868777
50
323.0088973
51
342.6390486
0
ARC
8
front_labelLayer
10
58.7526668
20
24.6250369
40
2.543133
50
342.3615728
51
353.7537385
0
ARC
8
front_labelLayer
10
57.4116321
20
24.7866801
40
3.8938216
50
353.5363121
51
0.2014414
0
ARC
8
front_labelLayer
10
57.6170679
20
24.8191939
40
3.6884098
50
359.7075874
51
7.8972463
0
ARC
8
front_labelLayer
10
58.9678811
20
25.012843
40
2.3238092
50
7.7440113
51
20.0690433
0
ARC
8
front_labelLayer
10
59.7205956
20
25.2890625
40
1.522015
50
20.0256864
51
37.435055
0
ARC
8
front_labelLayer
10
59.9703382
20
25.4662765
40
1.2160375
50
37.957754
51
80.4006092
0
ARC
8
front_labelLayer
10
59.8284176
20
24.8330449
40
1.8643849
50
79.3453187
51
90.3175109
0
ARC
8
front_labelLayer
10
59.8021373
20
24.9382188
40
1.7592548
50
89.4805728
51
103.8804818
0
ARC
8
front_labelLayer
10
59.6543151
20
25.5011276
40
1.177352
50
103.468521
51
142.3118864
0
ARC
8
front_labelLayer
10
59.9416948
20
25.2990221
40
1.528411
50
142.9025839
51
162.3749674
0
ARC
8
front_labelLayer
10
60.8472301
20
24.9972546
40
2.4828465
50
162.0653154
51
173.1674741
0
ARC
8
front_labelLayer
10
62.2591784
20
24.8171676
40
3.9062068
50
173.0085928
51
180.2463866
0
LINE
8
front_labelLayer
10
67.4462891
20
22.3556044
11
66.7070703
21
22.3556044
0
LINE
8
front_labelLayer
10
66.7070703
20
22.3556044
11
66.7070703
21
25.51287
0
LINE
8
front_labelLayer
10
64.1064453
20
24.9161512
11
64.1064453
21
22.3556044
0
LINE
8
front_labelLayer
10
64.1064453
20
22.3556044
11
63.3672266
21
22.3556044
0
LINE
8
front_labelLayer
10
63.3672266
20
22.3556044
11
63.3672266
21
27.2362294
0
LINE
8
front_labelLayer
10
63.3672266
20
27.2362294
11
63.9683984
21
27.2362294
0
LINE
8
front_labelLayer
10
63.9683984
20
27.2362294
11
64.0886328
21
26.5682606
0
LINE
8
front_labelLayer
10
64.0886328
20
26.5682606
11
64.1242578
21
26.5682606
0
LINE
8
front_labelLayer
10
67.4462891
20
25.5395887
11
67.4462891
21
22.3556044
0
ARC
8
front_labelLayer
10
64.617539
20
25.5248548
40
2.0895657
50
359.6713748
51
8.6877727
0
ARC
8
front_labelLayer
10
65.3919827
20
25.6476786
40
1.3054629
50
8.4931271
51
22.6580184
0
ARC
8
front_labelLayer
10
65.785455
20
25.8111935
40
0.879368
50
22.7024846
51
42.3419291
0
ARC
8
front_labelLayer
10
65.8296874
20
25.8310917
40
0.8334082
50
43.3790838
51
71.5386295
0
ARC
8
front_labelLayer
10
65.6642953
20
25.368949
40
1.3241837
50
71.0827431
51
84.3691674
0
ARC
8
front_labelLayer
10
65.590048
20
24.7376898
40
1.9597184
50
84.019761
51
90.151014
0
ARC
8
front_labelLayer
10
65.5690016
20
24.4601932
40
2.2372645
50
89.5932838
51
100.3718142
0
ARC
8
front_labelLayer
10
65.4108975
20
25.2897112
40
1.39285
50
100.1176663
51
118.1602284
0
ARC
8
front_labelLayer
10
65.2515653
20
25.6021499
40
1.0422225
50
118.5439385
51
139.1926579
0
ARC
8
front_labelLayer
10
65.3904951
20
25.5089275
40
1.2084718
50
140.1519354
51
160.3146253
0
ARC
8
front_labelLayer
10
66.2294343
20
25.1946973
40
2.1042724
50
159.9534487
51
171.3801154
0
ARC
8
front_labelLayer
10
67.5998689
20
24.9744051
40
3.4922663
50
171.1765887
51
178.3217452
0
ARC
8
front_labelLayer
10
68.8416535
20
24.9181123
40
4.7352086
50
178.0809483
51
180.0237292
0
ARC
8
front_labelLayer
10
65.3888058
20
25.7673797
40
1.4968272
50
116.9443142
51
147.6525393
0
ARC
8
front_labelLayer
10
65.5447338
20
25.5065352
40
1.8001314
50
115.8072812
51
117.6065779
0
ARC
8
front_labelLayer
10
65.6242554
20
25.3210772
40
2.0017328
50
94.3226913
51
115.5454365
0
ARC
8
front_labelLayer
10
65.6721637
20
24.9048724
40
2.4204201
50
89.9578256
51
94.71094
0
ARC
8
front_labelLayer
10
65.6919686
20
24.4067818
40
2.9185657
50
80.558548
51
90.3538254
0
ARC
8
front_labelLayer
10
65.8743584
20
25.4632633
40
1.8464882
50
65.1094391
51
80.7637849
0
ARC
8
front_labelLayer
10
66.0875675
20
25.9355178
40
1.328374
50
46.5584413
51
64.8782241
0
ARC
8
front_labelLayer
10
66.104631
20
25.9847103
40
1.2811028
50
19.3848826
51
45.5996902
0
ARC
8
front_labelLayer
10
65.3634771
20
25.7066153
40
2.0726084
50
6.9633767
51
19.8363699
0
ARC
8
front_labelLayer
10
64.2203737
20
25.5529227
40
3.2259431
50
359.7631765
51
7.2115863
0
LINE
8
front_labelLayer
10
71.2091797
20
22.9656825
11
71.2091797
21
22.4001356
0
LINE
8
front_labelLayer
10
69.0182422
20
23.7583387
11
69.0182422
21
26.6617762
0
LINE
8
front_labelLayer
10
69.0182422
20
26.6617762
11
68.3191016
21
26.6617762
0
LINE
8
front_labelLayer
10
68.3191016
20
26.6617762
11
68.3191016
21
27.0180262
0
LINE
8
front_labelLayer
10
68.3191016
20
27.0180262
11
69.0182422
21
27.3252919
0
LINE
8
front_labelLayer
10
69.0182422
20
27.3252919
11
69.3299609
21
28.3673231
0
LINE
8
front_labelLayer
10
69.3299609
20
28.3673231
11
69.7574609
21
28.3673231
0
LINE
8
front_labelLayer
10
69.7574609
20
28.3673231
11
69.7574609
21
27.2362294
0
LINE
8
front_labelLayer
10
69.7574609
20
27.2362294
11
71.1735547
21
27.2362294
0
LINE
8
front_labelLayer
10
71.1735547
20
27.2362294
11
71.1735547
21
26.6617762
0
LINE
8
front_labelLayer
10
71.1735547
20
26.6617762
11
69.7574609
21
26.6617762
0
LINE
8
front_labelLayer
10
69.7574609
20
26.6617762
11
69.7574609
21
23.7895106
0
ARC
8
front_labelLayer
10
70.5462817
20
25.3042957
40
2.427681
50
269.8803244
51
278.3028526
0
ARC
8
front_labelLayer
10
70.5696813
20
25.1136431
40
2.2356519
50
278.4150249
51
279.0081015
0
ARC
8
front_labelLayer
10
70.2968801
20
26.8563188
40
3.9995488
50
278.9590888
51
280.5102722
0
ARC
8
front_labelLayer
10
70.5565671
20
25.4628455
40
2.5820852
50
280.4848849
51
282.6268481
0
ARC
8
front_labelLayer
10
70.7842963
20
24.4511339
40
1.5450611
50
282.5875122
51
285.5795723
0
ARC
8
front_labelLayer
10
70.8990794
20
24.0291235
40
1.1077315
50
285.7231724
51
286.2567287
0
ARC
8
front_labelLayer
10
70.898384
20
23.0574875
40
0.7271214
50
287.9889813
51
295.30476
0
ARC
8
front_labelLayer
10
70.7230124
20
23.5880778
40
1.2859382
50
283.3070073
51
288.1197243
0
ARC
8
front_labelLayer
10
70.5377428
20
24.3609155
40
2.0806704
50
280.0070665
51
283.3734314
0
ARC
8
front_labelLayer
10
70.4137026
20
25.0340704
40
2.7651435
50
279.1865511
51
280.1143847
0
ARC
8
front_labelLayer
10
70.3377062
20
25.4663913
40
3.2040576
50
275.5260745
51
279.2938763
0
ARC
8
front_labelLayer
10
70.4234566
20
24.5707721
40
2.3043434
50
270.8932991
51
275.5483313
0
ARC
8
front_labelLayer
10
70.4342166
20
24.1627079
40
1.8961661
50
270.0036064
51
270.7604433
0
ARC
8
front_labelLayer
10
70.4045055
20
24.1970417
40
1.9307303
50
253.7848076
51
270.8852749
0
ARC
8
front_labelLayer
10
70.1757665
20
23.4169516
40
1.1177994
50
190.3817848
51
253.8772204
0
ARC
8
front_labelLayer
10
71.3416576
20
23.7321867
40
2.3235626
50
179.3551139
51
192.847744
0
ARC
8
front_labelLayer
10
71.2459653
20
23.7801998
40
1.4885335
50
179.6416103
51
189.7505982
0
ARC
8
front_labelLayer
10
70.720483
20
23.6864722
40
0.9547744
50
189.5478849
51
205.7874097
0
ARC
8
front_labelLayer
10
70.5045442
20
23.5868966
40
0.717034
50
206.1295096
51
221.4083016
0
ARC
8
front_labelLayer
10
70.4803236
20
23.5685193
40
0.6867167
50
221.5949274
51
262.3505267
0
ARC
8
front_labelLayer
10
70.5379119
20
23.8646701
40
0.9880555
50
261.3267138
51
270.1913074
0
LINE
8
left_outsideCutPath
10
124.6
20
48.6
11
124.6
21
3
0
LINE
8
left_outsideCutPath
10
124.6
20
3
11
272.2
21
3
0
LINE
8
left_outsideCutPath
10
272.2
20
3
11
272.2
21
48.6
0
LINE
8
left_outsideCutPath
10
272.2
20
48.6
11
124.6
21
48.6
0
LINE
8
left_labelLayer
10
192.7601172
20
29.2846669
11
192.7601172
21
22.3556044
0
LINE
8
left_labelLayer
10
192.7601172
20
22.3556044
11
192.0208984
21
22.3556044
0
LINE
8
left_labelLayer
10
192.0208984
20
22.3556044
11
192.0208984
21
29.2846669
0
LINE
8
left_labelLayer
10
192.0208984
20
29.2846669
11
192.7601172
21
29.2846669
0
LINE
8
left_labelLayer
10
198.1840234
20
25.1299012
11
198.1840234
21
24.6623231
0
LINE
8
left_labelLayer
10
198.1840234
20
24.6623231
11
194.8219141
21
24.6623231
0
LINE
8
left_labelLayer
10
197.9747266
20
23.2417762
11
197.9747266
21
22.5827137
0
LINE
8
left_labelLayer
10
194.8397266
20
25.263495
11
197.3913672
21
25.263495
0
ARC
8
left_labelLayer
10
196.3651084
20
25.1390116
40
2.8725726
50
256.0087949
51
270.4848018
0
ARC
8
left_labelLayer
10
196.155928
20
24.3269306
40
2.0340204
50
223.5465819
51
256.1957052
0
ARC
8
left_labelLayer
10
196.2713225
20
24.4108005
40
2.175522
50
194.0877174
51
223.0538139
0
ARC
8
left_labelLayer
10
197.3286602
20
24.6999426
40
3.2715203
50
181.3574665
51
194.491975
0
ARC
8
left_labelLayer
10
198.2789225
20
24.7550133
40
4.222946
50
179.9888001
51
181.7990109
0
ARC
8
left_labelLayer
10
197.9374979
20
24.7818778
40
3.8816087
50
168.953907
51
180.3843616
0
ARC
8
left_labelLayer
10
196.6697957
20
25.0400043
40
2.5879572
50
149.4071169
51
169.1853573
0
ARC
8
left_labelLayer
10
196.3165983
20
25.2266149
40
2.1890339
50
140.1056462
51
148.9066907
0
ARC
8
left_labelLayer
10
196.0995843
20
25.4266885
40
1.8942667
50
92.4762755
51
140.5386364
0
ARC
8
left_labelLayer
10
196.1962794
20
24.7120779
40
2.6132144
50
89.9638173
51
93.9175743
0
ARC
8
left_labelLayer
10
196.219352
20
25.0732761
40
2.2521177
50
74.212602
51
90.5450106
0
ARC
8
left_labelLayer
10
196.3604085
20
25.5929922
40
1.7136386
50
41.2064646
51
74.02326
0
ARC
8
left_labelLayer
10
196.093274
20
25.361807
40
2.0669147
50
11.5994231
51
41.1496009
0
ARC
8
left_labelLayer
10
195.175412
20
25.1501304
40
3.0086793
50
359.614764
51
12.0336363
0
ARC
8
left_labelLayer
10
197.7882756
20
24.7215969
40
2.9669537
50
181.1447306
51
190.8007242
0
ARC
8
left_labelLayer
10
196.7415647
20
24.5151553
40
1.9001113
50
190.6005814
51
206.0275385
0
ARC
8
left_labelLayer
10
196.2784698
20
24.2962249
40
1.3879298
50
206.2950549
51
222.5557702
0
ARC
8
left_labelLayer
10
196.2374314
20
24.274738
40
1.3432214
50
223.0645261
51
258.1401357
0
ARC
8
left_labelLayer
10
196.4007894
20
24.9473782
40
2.0351911
50
257.5311648
51
270.4319595
0
ARC
8
left_labelLayer
10
196.4026136
20
26.8164419
40
3.9042203
50
270.1983999
51
292.2090487
0
ARC
8
left_labelLayer
10
196.2150697
20
27.3550408
40
4.4738506
50
291.8254399
51
293.1612654
0
ARC
8
left_labelLayer
10
196.2061302
20
26.6529004
40
4.437832
50
287.9023291
51
293.4861335
0
ARC
8
left_labelLayer
10
196.5280748
20
25.659588
40
3.3936498
50
281.9935622
51
287.8851574
0
ARC
8
left_labelLayer
10
196.6060835
20
25.3792304
40
3.1032541
50
275.9054757
51
281.6603561
0
ARC
8
left_labelLayer
10
196.4498989
20
26.8370685
40
4.5694282
50
271.9120013
51
275.9727122
0
ARC
8
left_labelLayer
10
196.3928968
20
28.2889098
40
6.0223689
50
269.966866
51
271.993158
0
ARC
8
left_labelLayer
10
196.1748382
20
25.2492081
40
1.4571684
50
89.4422276
51
106.2089997
0
ARC
8
left_labelLayer
10
196.0871732
20
25.5688445
40
1.1257781
50
106.4656957
51
137.9176512
0
ARC
8
left_labelLayer
10
196.3385145
20
25.3481255
40
1.4602519
50
138.0995012
51
160.5866123
0
ARC
8
left_labelLayer
10
196.984569
20
25.1104519
40
2.148594
50
160.3353025
51
172.5315259
0
ARC
8
left_labelLayer
10
197.6207226
20
25.0085245
40
2.7926597
50
172.15453
51
174.7615875
0
ARC
8
left_labelLayer
10
194.872404
20
25.2778034
40
2.5190038
50
359.6745472
51
8.9224489
0
ARC
8
left_labelLayer
10
195.7725165
20
25.4244637
40
1.6070456
50
8.7341867
51
23.2772384
0
ARC
8
left_labelLayer
10
196.1998218
20
25.6038378
40
1.1436436
50
23.4820997
51
39.7072309
0
ARC
8
left_labelLayer
10
196.3047797
20
25.6823801
40
1.0127412
50
40.0823162
51
80.6243093
0
ARC
8
left_labelLayer
10
196.1967384
20
25.1871176
40
1.5192095
50
79.6468567
51
90.2909662
0
LINE
8
left_labelLayer
10
201.6441016
20
27.2362294
11
201.6441016
21
26.6617762
0
LINE
8
left_labelLayer
10
201.6441016
20
26.6617762
11
200.4016797
21
26.6617762
0
LINE
8
left_labelLayer
10
200.4016797
20
26.6617762
11
200.4016797
21
22.3556044
0
LINE
8
left_labelLayer
10
200.4016797
20
22.3556044
11
199.6624609
21
22.3556044
0
LINE
8
left_labelLayer
10
199.6624609
20
22.3556044
11
199.6624609
21
26.6617762
0
LINE
8
left_labelLayer
10
199.6624609
20
26.6617762
11
198.7896484
21
26.6617762
0
LINE
8
left_labelLayer
10
198.7896484
20
26.6617762
11
198.7896484
21
26.9957606
0
LINE
8
left_labelLayer
10
198.7896484
20
26.9957606
11
199.6624609
21
27.2629481
0
LINE
8
left_labelLayer
10
199.6624609
20
27.2629481
11
199.6624609
21
27.5345887
0
LINE
8
left_labelLayer
10
202.1428516
20
29.1777919
11
201.9513672
21
28.5855262
0
LINE
8
left_labelLayer
10
200.4016797
20
27.5524012
11
200.4016797
21
27.2362294
0
LINE
8
left_labelLayer
10
200.4016797
20
27.2362294
11
201.6441016
21
27.2362294
0
ARC
8
left_labelLayer
10
202.6582517
20
27.5690308
40
2.9959887
50
167.5775945
51
180.6586902
0
ARC
8
left_labelLayer
10
201.2494419
20
27.8974839
40
1.5496068
50
141.7433856
51
168.2322083
0
ARC
8
left_labelLayer
10
201.0200584
20
28.017205
40
1.2962448
50
98.2551504
51
139.6203374
0
ARC
8
left_labelLayer
10
201.2214619
20
27.086792
40
2.2468966
50
89.6697175
51
99.9314119
0
ARC
8
left_labelLayer
10
201.2220212
20
26.9532212
40
2.3804623
50
81.5640822
51
89.7017118
0
ARC
8
left_labelLayer
10
201.0546611
20
25.7856414
40
3.5599666
50
75.9740413
51
81.6564369
0
ARC
8
left_labelLayer
10
200.7674826
20
24.5945115
40
4.7851956
50
73.296342
51
76.0945847
0
ARC
8
left_labelLayer
10
200.8398271
20
25.1724024
40
3.5895593
50
71.9613057
51
76.5918846
0
ARC
8
left_labelLayer
10
201.118302
20
26.3537384
40
2.3758506
50
76.518322
51
83.0217447
0
ARC
8
left_labelLayer
10
201.2153045
20
27.133831
40
1.5897524
50
83.0761089
51
89.7927581
0
ARC
8
left_labelLayer
10
201.2121106
20
27.7266941
40
0.9969191
50
89.4859529
51
103.4197464
0
ARC
8
left_labelLayer
10
201.1222309
20
28.0720027
40
0.6402208
50
102.767737
51
144.3380239
0
ARC
8
left_labelLayer
10
201.3032972
20
27.9555027
40
0.8553212
50
145.0688267
51
162.1802071
0
ARC
8
left_labelLayer
10
201.9241157
20
27.7466272
40
1.5103021
50
161.8437471
51
171.7847464
0
ARC
8
left_labelLayer
10
202.9366875
20
27.5945401
40
2.534222
50
171.6527643
51
178.4383733
0
ARC
8
left_labelLayer
10
203.8922204
20
27.5538064
40
3.490541
50
178.1974357
51
180.0230647
0
LINE
8
left_labelLayer
10
204.7791016
20
22.9656825
11
204.7791016
21
22.4001356
0
LINE
8
left_labelLayer
10
202.5881641
20
23.7583387
11
202.5881641
21
26.6617762
0
LINE
8
left_labelLayer
10
202.5881641
20
26.6617762
11
201.8890234
21
26.6617762
0
LINE
8
left_labelLayer
10
201.8890234
20
26.6617762
11
201.8890234
21
27.0180262
0
LINE
8
left_labelLayer
10
201.8890234
20
27.0180262
11
202.5881641
21
27.3252919
0
LINE
8
left_labelLayer
10
202.5881641
20
27.3252919
11
202.8998828
21
28.3673231
0
LINE
8
left_labelLayer
10
202.8998828
20
28.3673231
11
203.3273828
21
28.3673231
0
LINE
8
left_labelLayer
10
203.3273828
20
28.3673231
11
203.3273828
21
27.2362294
0
LINE
8
left_labelLayer
10
203.3273828
20
27.2362294
11
204.7434766
21
27.2362294
0
LINE
8
left_labelLayer
10
204.7434766
20
27.2362294
11
204.7434766
21
26.6617762
0
LINE
8
left_labelLayer
10
204.7434766
20
26.6617762
11
203.3273828
21
26.6617762
0
LINE
8
left_labelLayer
10
203.3273828
20
26.6617762
11
203.3273828
21
23.7895106
0
ARC
8
left_labelLayer
10
204.1162036
20
25.3042957
40
2.427681
50
269.8803244
51
278.3028526
0
ARC
8
left_labelLayer
10
204.1396032
20
25.1136431
40
2.2356519
50
278.4150249
51
279.0081015
0
ARC
8
left_labelLayer
10
203.866802
20
26.8563188
40
3.9995488
50
278.9590888
51
280.5102722
0
ARC
8
left_labelLayer
10
204.126489
20
25.4628455
40
2.5820852
50
280.4848849
51
282.6268481
0
ARC
8
left_labelLayer
10
204.3542182
20
24.4511339
40
1.5450611
50
282.5875122
51
285.5795723
0
ARC
8
left_labelLayer
10
204.4690013
20
24.0291235
40
1.1077315
50
285.7231724
51
286.2567287
0
ARC
8
left_labelLayer
10
204.4683059
20
23.0574875
40
0.7271214
50
287.9889813
51
295.30476
0
ARC
8
left_labelLayer
10
204.2929343
20
23.5880778
40
1.2859382
50
283.3070073
51
288.1197243
0
ARC
8
left_labelLayer
10
204.1076647
20
24.3609155
40
2.0806704
50
280.0070665
51
283.3734314
0
ARC
8
left_labelLayer
10
203.9836244
20
25.0340704
40
2.7651435
50
279.1865511
51
280.1143847
0
ARC
8
left_labelLayer
10
203.9076281
20
25.4663913
40
3.2040576
50
275.5260745
51
279.2938763
0
ARC
8
left_labelLayer
10
203.9933785
20
24.5707721
40
2.3043434
50
270.8932991
51
275.5483313
0
ARC
8
left_labelLayer
10
204.0041385
20
24.1627079
40
1.8961661
50
270.0036064
51
270.7604433
0
ARC
8
left_labelLayer
10
203.9744274
20
24.1970417
40
1.9307303
50
253.7848076
51
270.8852749
0
ARC
8
left_labelLayer
10
203.7456883
20
23.4169516
40
1.1177994
50
190.3817848
51
253.8772204
0
ARC
8
left_labelLayer
10
204.9115795
20
23.7321867
40
2.3235626
50
179.3551139
51
192.847744
0
ARC
8
left_labelLayer
10
204.8158872
20
23.7801998
40
1.4885335
50
179.6416103
51
189.7505982
0
ARC
8
left_labelLayer
10
204.2904049
20
23.6864722
40
0.9547744
50
189.5478849
51
205.7874097
0
ARC
8
left_labelLayer
10
204.0744661
20
23.5868966
40
0.717034
50
206.1295096
51
221.4083016
0
ARC
8
left_labelLayer
10
204.0502455
20
23.5685193
40
0.6867167
50
221.5949274
51
262.3505267
0
ARC
8
left_labelLayer
10
204.1078338
20
23.8646701
40
0.9880555
50
261.3267138
51
270.1913074
0
LINE
8
top_outsideCutPath
10
275.2
20
156.6
11
275.2
21
3
0
LINE
8
top_outsideCutPath
10
275.2
20
3
11
396.8
21
3
0
LINE
8
top_outsideCutPath
10
396.8
20
3
11
396.8
21
156.6
0
LINE
8
top_outsideCutPath
10
396.8
20
156.6
11
275.2
21
156.6
0
LINE
8
top_labelLayer
10
325.4786494
20
76.3325
11
325.4786494
21
74.824375
0
LINE
8
top_labelLayer
10
319.6361494
20
78.44625
11
319.6361494
21
86.18875
0
LINE
8
top_labelLayer
10
319.6361494
20
86.18875
11
317.7717744
21
86.18875
0
LINE
8
top_labelLayer
10
317.7717744
20
86.18875
11
317.7717744
21
87.13875
0
LINE
8
top_labelLayer
10
317.7717744
20
87.13875
11
319.6361494
21
87.958125
0
LINE
8
top_labelLayer
10
319.6361494
20
87.958125
11
320.4673994
21
90.736875
0
LINE
8
top_labelLayer
10
320.4673994
20
90.736875
11
321.6073994
21
90.736875
0
LINE
8
top_labelLayer
10
321.6073994
20
90.736875
11
321.6073994
21
87.720625
0
LINE
8
top_labelLayer
10
321.6073994
20
87.720625
11
325.3836494
21
87.720625
0
LINE
8
top_labelLayer
10
325.3836494
20
87.720625
11
325.3836494
21
86.18875
0
LINE
8
top_labelLayer
10
325.3836494
20
86.18875
11
321.6073994
21
86.18875
0
LINE
8
top_labelLayer
10
321.6073994
20
86.18875
11
321.6073994
21
78.529375
0
ARC
8
top_labelLayer
10
323.7109168
20
82.5688602
40
6.4738744
50
269.8803674
51
278.3028194
0
ARC
8
top_labelLayer
10
323.772791
20
82.0637662
40
5.9651509
50
278.4153176
51
279.0080549
0
ARC
8
top_labelLayer
10
323.0462346
20
86.7052626
40
10.6631639
50
278.9589477
51
280.5104656
0
ARC
8
top_labelLayer
10
323.7384415
20
82.991182
40
6.8851312
50
280.4847661
51
282.626863
0
ARC
8
top_labelLayer
10
324.3455352
20
80.2940677
40
4.1205383
50
282.5876573
51
285.5794449
0
ARC
8
top_labelLayer
10
324.6502027
20
79.1735316
40
2.9593552
50
285.724138
51
286.25672
0
ARC
8
top_labelLayer
10
324.6498793
20
76.5772704
40
1.9389436
50
287.9888599
51
295.3048148
0
ARC
8
top_labelLayer
10
324.1822236
20
77.9921563
40
3.429101
50
283.306927
51
288.119739
0
ARC
8
top_labelLayer
10
323.6882397
20
80.0526896
40
5.5480139
50
280.00694
51
283.3735723
0
ARC
8
top_labelLayer
10
323.357783
20
81.8459756
40
7.3714537
50
279.1861982
51
280.1143164
0
ARC
8
top_labelLayer
10
323.1547594
20
83.0007433
40
8.5438378
50
275.526016
51
279.2939571
0
ARC
8
top_labelLayer
10
323.383398
20
80.612546
40
6.1447226
50
270.8932337
51
275.5484123
0
ARC
8
top_labelLayer
10
323.4121369
20
79.5200312
40
5.0519061
50
270.0029778
51
270.7604944
0
ARC
8
top_labelLayer
10
323.3328528
20
79.6161224
40
5.1486119
50
253.7847879
51
270.8852618
0
ARC
8
top_labelLayer
10
322.7228796
20
77.5358833
40
2.9807969
50
190.3817687
51
253.8772377
0
ARC
8
top_labelLayer
10
325.831901
20
78.3765085
40
6.196144
50
179.3550867
51
192.8477667
0
ARC
8
top_labelLayer
10
325.5767708
20
78.5045502
40
3.969449
50
179.6416714
51
189.7505916
0
ARC
8
top_labelLayer
10
324.1754789
20
78.2546133
40
2.5460866
50
189.5479704
51
205.7873557
0
ARC
8
top_labelLayer
10
323.5996082
20
77.9890624
40
1.912075
50
206.129454
51
221.4083724
0
ARC
8
top_labelLayer
10
323.5350333
20
77.9400644
40
1.8312442
50
221.5949117
51
262.3505207
0
ARC
8
top_labelLayer
10
323.688603
20
78.729785
40
2.6347997
50
261.3266401
51
270.1912845
0
ARC
8
top_labelLayer
10
329.1309479
20
81.1563558
40
10.1823079
50
349.1761851
51
0.3862634
0
ARC
8
top_labelLayer
10
332.5590888
20
80.4729477
40
6.6868758
50
330.2507038
51
349.411651
0
ARC
8
top_labelLayer
10
333.6141003
20
79.9245927
40
5.499017
50
318.1439729
51
329.7566318
0
ARC
8
top_labelLayer
10
333.8045108
20
79.771998
40
5.2553913
50
278.8959139
51
317.997912
0
ARC
8
top_labelLayer
10
333.3138853
20
82.1226285
40
7.6545761
50
269.7502874
51
279.8033212
0
ARC
8
top_labelLayer
10
333.2343162
20
80.7981945
40
6.3302381
50
253.5436922
51
270.4182405
0
ARC
8
top_labelLayer
10
333.0235933
20
79.983068
40
5.4888838
50
238.8115469
51
253.2428373
0
ARC
8
top_labelLayer
10
332.9555881
20
79.8463099
40
5.3366898
50
207.7947006
51
238.6757922
0
ARC
8
top_labelLayer
10
333.9314459
20
80.443973
40
6.4790692
50
205.6559997
51
208.446106
0
ARC
8
top_labelLayer
10
334.6830874
20
80.7571578
40
7.2923325
50
188.9102472
51
205.3171403
0
ARC
8
top_labelLayer
10
337.2161885
20
81.1861822
40
9.8613653
50
179.7744628
51
189.0932801
0
ARC
8
top_labelLayer
10
337.5898634
20
81.2943238
40
10.2351987
50
169.244296
51
180.3880718
0
ARC
8
top_labelLayer
10
334.1140688
20
81.9813621
40
6.6923029
50
150.711151
51
169.4695408
0
ARC
8
top_labelLayer
10
333.0044866
20
82.5511725
40
5.4459993
50
138.1759398
51
150.2287358
0
ARC
8
top_labelLayer
10
332.8199159
20
82.6928093
40
5.2140377
50
99.1759333
51
137.9832741
0
ARC
8
top_labelLayer
10
333.3279218
20
80.3020851
40
7.6561233
50
89.7326258
51
100.075989
0
ARC
8
top_labelLayer
10
333.4294564
20
81.3345568
40
6.6238951
50
73.522267
51
90.5692308
0
ARC
8
top_labelLayer
10
333.8179088
20
82.7459035
40
5.1604057
50
41.1445637
51
73.2133859
0
ARC
8
top_labelLayer
10
333.0763838
20
82.108573
40
6.1381563
50
13.5014325
51
41.0703394
0
ARC
8
top_labelLayer
10
330.2115105
20
81.3588739
40
9.099087
50
1.1277207
51
13.8799999
0
ARC
8
top_labelLayer
10
327.7434788
20
81.2266282
40
11.5695458
50
359.9919365
51
1.5419651
0
ARC
8
top_labelLayer
10
339.3796423
20
81.1737716
40
9.9823743
50
179.7059632
51
187.9160763
0
ARC
8
top_labelLayer
10
335.7184211
20
80.6478409
40
6.2836311
50
187.7639228
51
200.097675
0
ARC
8
top_labelLayer
10
333.7014595
20
79.9088242
40
4.1355437
50
200.0845827
51
216.9131705
0
ARC
8
top_labelLayer
10
332.9649429
20
79.3829163
40
3.230876
50
217.3009572
51
261.7099096
0
ARC
8
top_labelLayer
10
333.3068597
20
81.0144969
40
4.8957926
50
260.5032982
51
270.2476926
0
ARC
8
top_labelLayer
10
333.3721237
20
80.6972442
40
4.5787066
50
269.4481544
51
284.7255636
0
ARC
8
top_labelLayer
10
333.7345922
20
79.3529637
40
3.1864562
50
284.5662327
51
322.6333865
0
ARC
8
top_labelLayer
10
332.8871232
20
79.9652232
40
4.2316769
50
323.0089174
51
342.639054
0
ARC
8
top_labelLayer
10
330.4631664
20
80.7574426
40
6.7816778
50
342.3615683
51
353.7537511
0
ARC
8
top_labelLayer
10
326.887031
20
81.1884976
40
10.3835576
50
353.5363102
51
0.2014181
0
ARC
8
top_labelLayer
10
327.4349497
20
81.2752008
40
9.8357028
50
359.7075646
51
7.8972706
0
ARC
8
top_labelLayer
10
331.0370617
20
81.7915966
40
6.196824
50
7.7439938
51
20.069027
0
ARC
8
top_labelLayer
10
333.044297
20
82.5281776
40
4.0587103
50
20.025704
51
37.435056
0
ARC
8
top_labelLayer
10
333.7102813
20
83.0007509
40
3.242766
50
37.9577586
51
80.4006215
0
ARC
8
top_labelLayer
10
333.3318221
20
81.312101
40
4.9717254
50
79.3453489
51
90.31747
0
ARC
8
top_labelLayer
10
333.2617467
20
81.5925969
40
4.6913458
50
89.4805979
51
103.8805068
0
ARC
8
top_labelLayer
10
332.8675524
20
83.0936865
40
3.1396058
50
103.4685231
51
142.311882
0
ARC
8
top_labelLayer
10
333.6338999
20
82.5547375
40
4.075765
50
142.9025831
51
162.3749557
0
ARC
8
top_labelLayer
10
336.0486428
20
81.7500298
40
6.6209074
50
162.0653059
51
173.1674927
0
ARC
8
top_labelLayer
10
339.8139138
20
81.2697919
40
10.4166107
50
173.008623
51
180.2463754
0
LINE
8
top_labelLayer
10
344.7398994
20
76.38
11
344.5973994
21
76.38
0
LINE
8
top_labelLayer
10
344.7398994
20
74.21875
11
344.7398994
21
68.863125
0
LINE
8
top_labelLayer
10
344.7398994
20
68.863125
11
342.7686494
21
68.863125
0
LINE
8
top_labelLayer
10
342.7686494
20
68.863125
11
342.7686494
21
87.720625
0
LINE
8
top_labelLayer
10
342.7686494
20
87.720625
11
344.3717744
21
87.720625
0
LINE
8
top_labelLayer
10
344.3717744
20
87.720625
11
344.6448994
21
85.939375
0
LINE
8
top_labelLayer
10
344.6448994
20
85.939375
11
344.7398994
21
85.939375
0
LINE
8
top_labelLayer
10
344.7398994
20
81.664375
11
344.7398994
21
81.225
0
ARC
8
top_labelLayer
10
348.7916562
20
80.4472585
40
5.9792259
50
255.7755409
51
270.3185539
0
ARC
8
top_labelLayer
10
348.6210243
20
79.6891612
40
5.2024854
50
245.9801559
51
255.5455838
0
ARC
8
top_labelLayer
10
348.2905312
20
78.9205985
40
4.3659622
50
215.5850165
51
245.836169
0
ARC
8
top_labelLayer
10
326.0892804
20
74.0411973
40
18.6553067
50
2.9503198
51
7.2020828
0
ARC
8
top_labelLayer
10
329.1074053
20
74.2100632
40
15.6324965
50
0.0318387
51
2.9015765
0
ARC
8
top_labelLayer
10
349.0821667
20
82.8897963
40
5.3061488
50
132.3565009
51
144.9195934
0
ARC
8
top_labelLayer
10
348.2693125
20
83.7765966
40
4.1031802
50
115.4006185
51
132.3118418
0
ARC
8
top_labelLayer
10
348.5863825
20
83.0047248
40
4.9366432
50
97.7066379
51
114.8821448
0
ARC
8
top_labelLayer
10
348.807819
20
81.5686139
40
6.3895339
50
89.8468372
51
97.9474283
0
ARC
8
top_labelLayer
10
348.8859095
20
81.9160479
40
6.0423851
50
74.1923543
51
90.5785268
0
ARC
8
top_labelLayer
10
349.3040081
20
83.4359249
40
4.4661091
50
38.0523392
51
74.0417299
0
ARC
8
top_labelLayer
10
348.1508143
20
82.5520514
40
5.9190107
50
16.3356038
51
37.909053
0
ARC
8
top_labelLayer
10
345.1213481
20
81.6189576
40
9.0887277
50
4.5766597
51
16.6088758
0
ARC
8
top_labelLayer
10
341.3917193
20
81.2473297
40
12.8363244
50
359.9003301
51
4.9018108
0
ARC
8
top_labelLayer
10
342.6703246
20
81.1568124
40
11.557901
50
350.6562787
51
0.338027
0
ARC
8
top_labelLayer
10
346.6995969
20
80.4714775
40
7.4708525
50
335.830596
51
350.8254786
0
ARC
8
top_labelLayer
10
348.4720117
20
79.7064765
40
5.5406603
50
321.3161379
51
335.543632
0
ARC
8
top_labelLayer
10
349.1496056
20
79.1543393
40
4.6666336
50
274.0640088
51
321.4081014
0
ARC
8
top_labelLayer
10
348.8339321
20
81.1539682
40
6.6858493
50
269.9225922
51
275.5481417
0
ARC
8
top_labelLayer
10
348.4992975
20
80.6039587
40
5.6799364
50
89.5904288
51
100.3501786
0
ARC
8
top_labelLayer
10
348.0942755
20
82.7317015
40
3.5140854
50
100.0868076
51
118.1917926
0
ARC
8
top_labelLayer
10
347.6793652
20
83.5409124
40
2.6049094
50
118.5569401
51
141.0243332
0
ARC
8
top_labelLayer
10
348.3116081
20
83.0949386
40
3.377321
50
141.8890446
51
160.5973136
0
ARC
8
top_labelLayer
10
350.5335602
20
82.2796392
40
5.7440117
50
160.2895691
51
171.2453016
0
ARC
8
top_labelLayer
10
354.1868748
20
81.690608
40
9.444451
50
171.0868554
51
178.324754
0
ARC
8
top_labelLayer
10
357.2849039
20
81.5433745
40
12.545588
50
178.0662535
51
179.4473815
0
ARC
8
top_labelLayer
10
357.7735533
20
81.1741055
40
13.0337533
50
179.7762694
51
185.7075232
0
ARC
8
top_labelLayer
10
352.6347854
20
80.6446293
40
7.8678199
50
185.5924718
51
194.2050771
0
ARC
8
top_labelLayer
10
349.3429737
20
79.7902883
40
4.467057
50
193.9430373
51
208.0218513
0
ARC
8
top_labelLayer
10
348.0111127
20
79.1127359
40
2.9731405
50
208.5536917
51
217.5605102
0
ARC
8
top_labelLayer
10
347.9025832
20
79.0675911
40
2.8597493
50
218.1690469
51
253.8047173
0
ARC
8
top_labelLayer
10
348.4330132
20
80.7029657
40
4.5784798
50
253.1382598
51
266.8482961
0
ARC
8
top_labelLayer
10
348.581749
20
82.4569789
40
6.3382314
50
266.3775443
51
270.0510779
0
ARC
8
top_labelLayer
10
348.6322853
20
79.4399282
40
3.3214815
50
269.2256914
51
292.0430339
0
ARC
8
top_labelLayer
10
348.6771005
20
79.1728501
40
3.0576704
50
293.1429667
51
324.1353871
0
ARC
8
top_labelLayer
10
348.0116905
20
79.7362775
40
3.9275847
50
323.1614635
51
325.0154485
0
ARC
8
top_labelLayer
10
347.2982562
20
80.1786952
40
4.7659965
50
325.5753816
51
344.1504552
0
ARC
8
top_labelLayer
10
344.8319762
20
80.9077525
40
7.3376808
50
343.9336225
51
355.1137579
0
ARC
8
top_labelLayer
10
341.683627
20
81.2272213
40
10.5019196
50
354.8402128
51
0.1174551
0
ARC
8
top_labelLayer
10
342.2381207
20
81.2989519
40
9.9475304
50
359.7108457
51
7.8610434
0
ARC
8
top_labelLayer
10
345.8550404
20
81.8145336
40
6.294104
50
7.7149685
51
19.8859565
0
ARC
8
top_labelLayer
10
347.8442583
20
82.5330465
40
4.1790986
50
19.8991397
51
35.8980206
0
ARC
8
top_labelLayer
10
348.7315352
20
83.2050024
40
3.0664464
50
35.4481607
51
85.2266635
0
ARC
8
top_labelLayer
10
348.5461758
20
82.0426173
40
4.2411375
50
84.0378782
51
90.0847906
0
LINE
8
back_outsideCutPath
10
0
20
97.2
11
0
21
51.6
0
LINE
8
back_outsideCutPath
10
0
20
51.6
11
121.6
21
51.6
0
LINE
8
back_outsideCutPath
10
121.6
20
51.6
11
121.6
21
97.2
0
LINE
8
back_outsideCutPath
10
121.6
20
97.2
11
0
21
97.2
0
LINE
8
back_labelLayer
10
52.0852344
20
71.6079409
11
52.0317969
21
71.6079409
0
LINE
8
back_labelLayer
10
52.0317969
20
71.6079409
11
51.8759375
21
70.9800503
0
LINE
8
back_labelLayer
10
51.8759375
20
70.9800503
11
51.3460156
21
70.9800503
0
LINE
8
back_labelLayer
10
51.3460156
20
70.9800503
11
51.3460156
21
77.9091128
0
LINE
8
back_labelLayer
10
51.3460156
20
77.9091128
11
52.0852344
21
77.9091128
0
LINE
8
back_labelLayer
10
52.0852344
20
77.9091128
11
52.0852344
21
76.2258316
0
LINE
8
back_labelLayer
10
52.0496094
20
75.2105191
11
52.0852344
21
75.2105191
0
ARC
8
back_labelLayer
10
53.6392855
20
73.6816347
40
2.2593057
50
74.2393227
51
90.5623942
0
ARC
8
back_labelLayer
10
53.7886781
20
74.2296862
40
1.691288
50
38.563139
51
74.0670413
0
ARC
8
back_labelLayer
10
53.4042244
20
73.9307509
40
2.178258
50
16.4709179
51
38.4075402
0
ARC
8
back_labelLayer
10
52.2966525
20
73.5834499
40
3.3389032
50
5.1338589
51
16.7973165
0
ARC
8
back_labelLayer
10
50.8984685
20
73.4349249
40
4.7448235
50
359.87793
51
5.4093684
0
ARC
8
back_labelLayer
10
51.3091489
20
73.3992452
40
4.3342078
50
350.6562735
51
0.3380332
0
ARC
8
back_labelLayer
10
52.8201176
20
73.1422461
40
2.8015732
50
335.8306043
51
350.8254681
0
ARC
8
back_labelLayer
10
53.4847841
20
72.855365
40
2.0777388
50
321.3161072
51
335.5436622
0
ARC
8
back_labelLayer
10
53.7388744
20
72.6483178
40
1.7499872
50
274.0640026
51
321.4081064
0
ARC
8
back_labelLayer
10
53.6204974
20
73.3981462
40
2.5071608
50
269.9225746
51
275.5481977
0
ARC
8
back_labelLayer
10
53.6046435
20
73.1331619
40
2.2422087
50
255.7755272
51
270.3185463
0
ARC
8
back_labelLayer
10
53.5406623
20
72.848892
40
1.9509487
50
245.9801796
51
255.5455254
0
ARC
8
back_labelLayer
10
53.4167208
20
72.5606649
40
1.6372352
50
215.5850132
51
245.8361781
0
ARC
8
back_labelLayer
10
36.6732666
20
76.2128022
40
15.4119733
50
358.1123009
51
0.048438
0
ARC
8
back_labelLayer
10
40.9627185
20
76.0687858
40
11.1201056
50
355.7238386
51
358.1259095
0
ARC
8
back_labelLayer
10
42.8141458
20
75.9419416
40
9.2643816
50
355.471788
51
355.652355
0
ARC
8
back_labelLayer
10
53.4638453
20
74.2491764
40
1.6806985
50
95.183517
51
145.1108946
0
ARC
8
back_labelLayer
10
53.6115705
20
73.4161457
40
2.5246919
50
89.8743006
51
96.8145421
0
ARC
8
back_labelLayer
10
53.4947594
20
73.2446373
40
2.0772675
50
89.5731622
51
100.7324488
0
ARC
8
back_labelLayer
10
53.3409813
20
74.0215691
40
1.2853053
50
100.4469014
51
119.6700838
0
ARC
8
back_labelLayer
10
53.1983851
20
74.2881689
40
0.9831066
50
120.1402851
51
142.4249439
0
ARC
8
back_labelLayer
10
53.4342981
20
74.1321028
40
1.2654106
50
143.3381976
51
161.2559886
0
ARC
8
back_labelLayer
10
54.4208669
20
73.78184
40
2.3122555
50
160.8926822
51
171.233391
0
ARC
8
back_labelLayer
10
56.0677923
20
73.5161541
40
3.9804504
50
171.0667865
51
177.8456664
0
ARC
8
back_labelLayer
10
57.7807011
20
73.429044
40
5.6954681
50
177.6177289
51
180.0425335
0
ARC
8
back_labelLayer
10
56.9728505
20
73.4057322
40
4.8876534
50
179.7762897
51
185.7075483
0
ARC
8
back_labelLayer
10
55.0458247
20
73.2071776
40
2.9504406
50
185.5924692
51
194.2050507
0
ARC
8
back_labelLayer
10
53.8113891
20
72.8867995
40
1.6751483
50
193.9430372
51
208.0218354
0
ARC
8
back_labelLayer
10
53.3119423
20
72.632718
40
1.1149308
50
208.5536678
51
217.5604617
0
ARC
8
back_labelLayer
10
53.2712413
20
72.6157883
40
1.0724068
50
218.1690602
51
253.8047027
0
ARC
8
back_labelLayer
10
53.4701523
20
73.2290547
40
1.7169316
50
253.1382681
51
266.8482911
0
ARC
8
back_labelLayer
10
53.525929
20
73.8867758
40
2.3768047
50
266.3774713
51
270.0510546
0
ARC
8
back_labelLayer
10
53.5438161
20
72.9835109
40
1.4736231
50
269.3868685
51
285.8630695
0
ARC
8
back_labelLayer
10
53.6532966
20
72.587834
40
1.0630929
50
286.0162796
51
326.8497146
0
ARC
8
back_labelLayer
10
53.124883
20
72.9378882
40
1.6969288
50
326.7105058
51
343.6661682
0
ARC
8
back_labelLayer
10
52.1357248
20
73.2401414
40
2.7311935
50
343.4171598
51
353.6369291
0
ARC
8
back_labelLayer
10
50.6417151
20
73.4174165
40
4.2356599
50
353.4934846
51
0.2205679
0
ARC
8
back_labelLayer
10
50.5100308
20
73.4514019
40
4.3673487
50
359.7680576
51
6.309531
0
ARC
8
back_labelLayer
10
52.1550989
20
73.6401838
40
2.7115068
50
6.1648706
51
16.0396088
0
ARC
8
back_labelLayer
10
53.214849
20
73.9524892
40
1.6067379
50
15.77798
51
32.0150889
0
ARC
8
back_labelLayer
10
53.545464
20
74.1418333
40
1.2261157
50
32.7032717
51
35.5244949
0
ARC
8
back_labelLayer
10
53.6661869
20
74.2276439
40
1.078003
50
35.5408525
51
79.8011051
0
ARC
8
back_labelLayer
10
53.5214236
20
73.6122334
40
1.7096504
50
78.6780818
51
90.3749898
0
LINE
8
back_labelLayer
10
60.4838281
20
70.9800503
11
59.9360938
21
70.9800503
0
LINE
8
back_labelLayer
10
59.9360938
20
70.9800503
11
59.7891406
21
71.6747378
0
LINE
8
back_labelLayer
10
59.7891406
20
71.6747378
11
59.7535156
21
71.6747378
0
LINE
8
back_labelLayer
10
58.9341406
20
73.8790347
11
59.7624219
21
73.9057534
0
LINE
8
back_labelLayer
10
59.7624219
20
73.9057534
11
59.7624219
21
74.2085659
0
LINE
8
back_labelLayer
10
57.344375
20
74.9566909
11
57.1172656
21
75.5222378
0
LINE
8
back_labelLayer
10
60.4838281
20
74.3109878
11
60.4838281
21
70.9800503
0
LINE
8
back_labelLayer
10
59.7446094
20
72.9394253
11
59.7446094
21
73.3802847
0
LINE
8
back_labelLayer
10
59.7446094
20
73.3802847
11
59.0053906
21
73.3491128
0
ARC
8
back_labelLayer
10
57.3483918
20
73.5737007
40
3.0644217
50
314.7444924
51
321.7071823
0
ARC
8
back_labelLayer
10
58.1012533
20
72.8087373
40
1.9911336
50
304.8486177
51
314.8530079
0
ARC
8
back_labelLayer
10
58.4629413
20
72.2939137
40
1.3619665
50
294.3932573
51
304.737173
0
ARC
8
back_labelLayer
10
58.3393752
20
72.6140832
40
1.7047013
50
281.2979737
51
293.7313334
0
ARC
8
back_labelLayer
10
58.1760373
20
73.4057038
40
2.5129866
50
272.9334832
51
281.4139143
0
ARC
8
back_labelLayer
10
58.1218945
20
74.2176071
40
3.3266205
50
269.9539145
51
273.1491458
0
ARC
8
back_labelLayer
10
58.1031926
20
73.1594926
40
2.2685614
50
258.6719884
51
270.4047669
0
ARC
8
back_labelLayer
10
57.9456172
20
72.4057094
40
1.4985247
50
238.3273223
51
258.9183481
0
ARC
8
back_labelLayer
10
57.8370329
20
72.2076065
40
1.272966
50
227.7689976
51
237.8049739
0
ARC
8
back_labelLayer
10
57.8030597
20
72.1601812
40
1.2150347
50
192.082766
51
227.4520893
0
ARC
8
back_labelLayer
10
58.4294728
20
72.3145994
40
1.8600001
50
179.5457006
51
192.6949698
0
ARC
8
back_labelLayer
10
57.8475409
20
72.3819466
40
1.2790917
50
115.4904538
51
182.3568095
0
ARC
8
back_labelLayer
10
58.4881244
20
71.206984
40
2.6163686
50
101.3568137
51
117.0798519
0
ARC
8
back_labelLayer
10
59.0025697
20
68.802946
40
5.0747336
50
92.4696122
51
101.7065145
0
ARC
8
back_labelLayer
10
59.1504175
20
66.66174
40
7.2205344
50
91.7164388
51
92.9095945
0
ARC
8
back_labelLayer
10
57.6392195
20
74.2199288
40
2.1232328
50
359.6933688
51
8.0035378
0
ARC
8
back_labelLayer
10
58.442415
20
74.3369364
40
1.3115755
50
7.8272488
51
20.6042172
0
ARC
8
back_labelLayer
10
58.8969063
20
74.510803
40
0.8249758
50
20.4094259
51
41.447895
0
ARC
8
back_labelLayer
10
58.9640609
20
74.5477153
40
0.7503934
50
42.7295535
51
71.0379911
0
ARC
8
back_labelLayer
10
58.8059607
20
74.1178341
40
1.20836
50
70.571661
51
83.9928331
0
ARC
8
back_labelLayer
10
58.7304338
20
73.5043327
40
1.8264292
50
83.6506588
51
90.1753612
0
ARC
8
back_labelLayer
10
58.7436823
20
72.9240893
40
2.4067379
50
90.4484833
51
103.7665561
0
ARC
8
back_labelLayer
10
59.0267034
20
71.7305809
40
3.6333219
50
103.6226711
51
112.4320031
0
ARC
8
back_labelLayer
10
59.5117773
20
70.5057927
40
4.9505684
50
112.2121844
51
115.9641557
0
ARC
8
back_labelLayer
10
58.7349373
20
72.5222835
40
3.4083115
50
106.3568751
51
118.3349713
0
ARC
8
back_labelLayer
10
58.8801714
20
72.0736088
40
3.8797492
50
104.5162379
51
106.5488653
0
ARC
8
back_labelLayer
10
58.7736438
20
72.5174228
40
3.4234113
50
90.0714451
51
104.6520884
0
ARC
8
back_labelLayer
10
58.7870789
20
72.8188316
40
3.1220502
50
81.5679657
51
90.3249033
0
ARC
8
back_labelLayer
10
58.9675918
20
73.994819
40
1.9323146
50
68.2273274
51
81.7494142
0
ARC
8
back_labelLayer
10
59.219017
20
74.6203842
40
1.2581165
50
47.8683191
51
68.2934331
0
ARC
8
back_labelLayer
10
59.2598249
20
74.701863
40
1.1705701
50
19.2330618
51
46.6741424
0
ARC
8
back_labelLayer
10
58.5800564
20
74.4489866
40
1.8957569
50
6.3378687
51
19.6815462
0
ARC
8
back_labelLayer
10
57.5751843
20
74.3210066
40
2.9086609
50
359.8026462
51
6.6583368
0
ARC
8
back_labelLayer
10
58.2811187
20
73.5362987
40
2.0352876
50
269.5792255
51
282.0413589
0
ARC
8
back_labelLayer
10
58.4295804
20
72.8777875
40
1.3603163
50
281.7120659
51
306.4594203
0
ARC
8
back_labelLayer
10
58.4953991
20
72.7695417
40
1.2341962
50
306.9881422
51
313.8558779
0
ARC
8
back_labelLayer
10
58.4875764
20
72.7672881
40
1.2380119
50
314.1892017
51
347.4269723
0
ARC
8
back_labelLayer
10
57.8674266
20
72.9226948
40
1.8771937
50
346.9177526
51
0.2824616
0
ARC
8
back_labelLayer
10
57.418577
20
72.9394207
40
2.3260325
50
359.8159568
51
0.0001128
0
ARC
8
back_labelLayer
10
59.1812304
20
67.9241853
40
5.4277765
50
91.8564951
51
96.4478614
0
ARC
8
back_labelLayer
10
58.9364495
20
70.0423187
40
3.2955574
50
96.3545313
51
102.9953444
0
ARC
8
back_labelLayer
10
58.6041816
20
71.4540151
40
1.84531
50
102.7995085
51
113.2433158
0
ARC
8
back_labelLayer
10
58.3302681
20
72.1091071
40
1.1353113
50
113.5885872
51
121.6804796
0
ARC
8
back_labelLayer
10
58.1399659
20
72.3989331
40
0.7887889
50
120.9734099
51
172.4179605
0
ARC
8
back_labelLayer
10
58.5119154
20
72.3246363
40
1.167548
50
171.2121301
51
180.205884
0
ARC
8
back_labelLayer
10
58.4007679
20
72.311713
40
1.056429
50
179.5266348
51
192.7787639
0
ARC
8
back_labelLayer
10
58.0433961
20
72.225084
40
0.6887692
50
192.326449
51
222.0579993
0
ARC
8
back_labelLayer
10
58.0168288
20
72.2092027
40
0.6584327
50
222.5806056
51
229.2545768
0
ARC
8
back_labelLayer
10
58.1066418
20
72.324839
40
0.8046959
50
229.7837511
51
254.2723678
0
ARC
8
back_labelLayer
10
58.2262739
20
72.7234983
40
1.2208784
50
253.9395969
51
266.4534337
0
ARC
8
back_labelLayer
10
58.2644593
20
73.1636903
40
1.6626251
50
266.0784208
51
270.059017
0
LINE
8
back_labelLayer
10
65.2620312
20
75.6959097
11
65.0349219
21
75.0680191
0
LINE
8
back_labelLayer
10
65.1907813
20
71.7994253
11
65.1907813
21
71.1448159
0
ARC
8
back_labelLayer
10
63.9336868
20
73.6536373
40
2.7627501
50
256.4243561
51
270.488999
0
ARC
8
back_labelLayer
10
63.7129169
20
72.7919961
40
1.873402
50
221.7976311
51
256.8020608
0
ARC
8
back_labelLayer
10
63.9267097
20
72.9499586
40
2.1382105
50
196.0166623
51
221.1349035
0
ARC
8
back_labelLayer
10
65.0012038
20
73.2783782
40
3.2616675
50
183.5913621
51
196.3539352
0
ARC
8
back_labelLayer
10
66.2048458
20
73.384418
40
4.469692
50
179.938817
51
183.9815079
0
ARC
8
back_labelLayer
10
65.8137918
20
73.4154509
40
4.0787201
50
169.8978424
51
180.3688896
0
ARC
8
back_labelLayer
10
64.3938934
20
73.6781119
40
2.6347805
50
153.0875155
51
170.1051513
0
ARC
8
back_labelLayer
10
63.8551561
20
73.9355348
40
2.037922
50
138.6549927
51
152.685348
0
ARC
8
back_labelLayer
10
63.7546065
20
74.0088095
40
1.9140644
50
101.4912862
51
138.3133962
0
ARC
8
back_labelLayer
10
63.9854446
20
73.0480808
40
2.9017315
50
89.5891862
51
102.1787502
0
ARC
8
back_labelLayer
10
64.0031955
20
72.61386
40
3.3358792
50
77.7702269
51
89.9475374
0
ARC
8
back_labelLayer
10
63.940045
20
72.2654861
40
3.6897443
50
74.679683
51
77.9578033
0
ARC
8
back_labelLayer
10
64.2811129
20
73.5011142
40
2.4079118
50
70.0945799
51
74.7386009
0
ARC
8
back_labelLayer
10
64.6055396
20
74.3902078
40
1.4614811
50
63.5033475
51
70.186151
0
ARC
8
back_labelLayer
10
64.7534088
20
74.7007038
40
1.1176456
50
62.9296688
51
63.1860529
0
ARC
8
back_labelLayer
10
63.8205718
20
72.0119163
40
3.288527
50
68.329477
51
74.8831347
0
ARC
8
back_labelLayer
10
63.647071
20
71.396707
40
3.9277011
50
74.7801849
51
77.449704
0
ARC
8
back_labelLayer
10
63.8292245
20
72.251691
40
3.0535754
50
77.2998964
51
81.7344687
0
ARC
8
back_labelLayer
10
63.9620813
20
73.1774008
40
2.1183824
50
81.6910815
51
87.5078353
0
ARC
8
back_labelLayer
10
63.9877179
20
73.6564818
40
1.6386467
50
87.674992
51
89.9748404
0
ARC
8
back_labelLayer
10
63.9517919
20
73.655843
40
1.639695
50
88.719388
51
112.5667648
0
ARC
8
back_labelLayer
10
63.8352812
20
74.0410592
40
1.2399146
50
114.4265893
51
161.6632815
0
ARC
8
back_labelLayer
10
64.9927048
20
73.5880306
40
2.4819672
50
160.1418319
51
175.1368149
0
ARC
8
back_labelLayer
10
66.5857887
20
73.4091418
40
4.0847099
50
174.5310041
51
180.1549216
0
ARC
8
back_labelLayer
10
66.0810508
20
73.3796105
40
3.5800047
50
179.7041304
51
188.0743775
0
ARC
8
back_labelLayer
10
64.7915651
20
73.1909426
40
2.2768094
50
187.9314825
51
200.3885838
0
ARC
8
back_labelLayer
10
64.0943502
20
72.9326586
40
1.533292
50
200.4183493
51
216.6392664
0
ARC
8
back_labelLayer
10
63.8020533
20
72.7237031
40
1.1740705
50
216.9695374
51
261.3103056
0
ARC
8
back_labelLayer
10
63.9310485
20
73.3250975
40
1.7884262
50
260.1359407
51
270.2692591
0
ARC
8
back_labelLayer
10
63.9250948
20
74.6311212
40
3.0944635
50
270.2658542
51
286.2891293
0
ARC
8
back_labelLayer
10
63.736977
20
75.3326779
40
3.8206572
50
286.0460474
51
292.3653749
0
ARC
8
back_labelLayer
10
64.2379635
20
73.0192368
40
2.1026924
50
282.0344522
51
296.9454366
0
ARC
8
back_labelLayer
10
64.0217155
20
73.993795
40
3.1009309
50
272.5980714
51
282.187814
0
ARC
8
back_labelLayer
10
63.959702
20
74.9449596
40
4.0539725
50
269.9655655
51
272.8642583
0
LINE
8
back_labelLayer
10
67.0432812
20
73.4782534
11
67.0789062
21
73.4782534
0
LINE
8
back_labelLayer
10
67.6622656
20
74.1907534
11
69.2386719
21
75.8606753
0
LINE
8
back_labelLayer
10
69.2386719
20
75.8606753
11
70.1159375
21
75.8606753
0
LINE
8
back_labelLayer
10
70.1159375
20
75.8606753
11
68.13875
21
73.7810659
0
LINE
8
back_labelLayer
10
68.13875
20
73.7810659
11
70.2539844
21
70.9800503
0
LINE
8
back_labelLayer
10
70.2539844
20
70.9800503
11
69.3589062
21
70.9800503
0
LINE
8
back_labelLayer
10
69.3589062
20
70.9800503
11
67.6355469
21
73.2867691
0
LINE
8
back_labelLayer
10
67.6355469
20
73.2867691
11
67.0789062
21
72.8058316
0
LINE
8
back_labelLayer
10
67.0789062
20
72.8058316
11
67.0789062
21
70.9800503
0
LINE
8
back_labelLayer
10
67.0789062
20
70.9800503
11
66.3485937
21
70.9800503
0
LINE
8
back_labelLayer
10
66.3485937
20
70.9800503
11
66.3485937
21
77.9091128
0
LINE
8
back_labelLayer
10
66.3485937
20
77.9091128
11
67.0789062
21
77.9091128
0
LINE
8
back_labelLayer
10
67.0789062
20
77.9091128
11
67.0789062
21
74.2352847
0
ARC
8
back_labelLayer
10
70.6506378
20
70.9500324
40
4.3759762
50
142.3233349
51
144.7075436
0
ARC
8
back_labelLayer
10
72.9812867
20
69.1523436
40
7.319377
50
140.4331172
51
142.3365041
0
ARC
8
back_labelLayer
10
76.0168928
20
66.6535268
40
11.2511649
50
139.279828
51
140.4704147
0
ARC
8
back_labelLayer
10
79.5287176
20
63.63363
40
15.8828694
50
138.3417471
51
139.2877593
0
ARC
8
back_labelLayer
10
62.1534587
20
74.2444954
40
4.9254561
50
358.2738027
51
359.8928559
0
ARC
8
back_labelLayer
10
58.3201928
20
74.351309
40
8.7602045
50
357.5042056
51
358.3307395
0
ARC
8
back_labelLayer
10
52.58281
20
74.6047456
40
14.5031813
50
356.6325536
51
357.4909485
0
ARC
8
back_labelLayer
10
43.050255
20
75.1607284
40
24.0519356
50
356.0329105
51
356.6442544
0
ARC
8
back_labelLayer
10
36.0391636
20
75.6348356
40
31.0790309
50
356.0210332
51
356.0551812
0
LINE
8
right_outsideCutPath
10
124.6
20
97.2
11
124.6
21
51.6
0
LINE
8
right_outsideCutPath
10
124.6
20
51.6
11
272.2
21
51.6
0
LINE
8
right_outsideCutPath
10
272.2
20
51.6
11
272.2
21
97.2
0
LINE
8
right_outsideCutPath
10
272.2
20
97.2
11
124.6
21
97.2
0
LINE
8
right_labelLayer
10
191.7759766
20
76.9472143
11
191.6735547
21
76.2614331
0
LINE
8
right_labelLayer
10
189.7052734
20
74.6494018
11
189.7052734
21
72.0309643
0
LINE
8
right_labelLayer
10
189.7052734
20
72.0309643
11
188.9660547
21
72.0309643
0
LINE
8
right_labelLayer
10
188.9660547
20
72.0309643
11
188.9660547
21
76.9115893
0
LINE
8
right_labelLayer
10
188.9660547
20
76.9115893
11
189.5761328
21
76.9115893
0
LINE
8
right_labelLayer
10
189.5761328
20
76.9115893
11
189.6607422
21
76.007605
0
LINE
8
right_labelLayer
10
189.6607422
20
76.007605
11
189.6963672
21
76.007605
0
ARC
8
right_labelLayer
10
191.2002067
20
73.607028
40
3.3936323
50
84.9923181
51
90.1281367
0
ARC
8
right_labelLayer
10
191.2817007
20
74.5201112
40
2.4769211
50
78.4892081
51
85.0265662
0
ARC
8
right_labelLayer
10
190.9653717
20
73.0813723
40
3.257961
50
77.4453926
51
81.6360136
0
ARC
8
right_labelLayer
10
191.1073204
20
74.059802
40
2.2692906
50
81.5884304
51
87.191655
0
ARC
8
right_labelLayer
10
191.1381546
20
74.5944748
40
1.7337553
50
87.343698
51
89.9661249
0
ARC
8
right_labelLayer
10
191.1309876
20
75.0474085
40
1.2808476
50
89.6335422
51
137.0880707
0
ARC
8
right_labelLayer
10
191.4452679
20
74.6939779
40
1.7522429
50
135.6207958
51
138.8377681
0
ARC
8
right_labelLayer
10
191.399269
20
74.7388817
40
1.6880609
50
138.9575697
51
174.5422366
0
ARC
8
right_labelLayer
10
191.9490467
20
74.6528588
40
2.2437759
50
173.6907908
51
180.0882757
0
ARC
8
right_labelLayer
10
191.8713066
20
74.7822538
40
2.4963668
50
139.4139294
51
150.6032825
0
ARC
8
right_labelLayer
10
191.4237068
20
75.1657996
40
1.9069154
50
124.2321508
51
139.4161017
0
ARC
8
right_labelLayer
10
191.1843788
20
75.5270639
40
1.4736111
50
89.6796799
51
124.4405638
0
LINE
8
right_labelLayer
10
193.4280859
20
76.9115893
11
193.4280859
21
72.0309643
0
LINE
8
right_labelLayer
10
193.4280859
20
72.0309643
11
192.6888672
21
72.0309643
0
LINE
8
right_labelLayer
10
192.6888672
20
72.0309643
11
192.6888672
21
76.9115893
0
LINE
8
right_labelLayer
10
192.6888672
20
76.9115893
11
193.4280859
21
76.9115893
0
ARC
8
right_labelLayer
10
193.4456596
20
78.2392354
40
0.8191519
50
170.8452894
51
180.3544765
0
ARC
8
right_labelLayer
10
193.1389919
20
78.2905107
40
0.5082356
50
155.9678174
51
171.0517171
0
ARC
8
right_labelLayer
10
192.9904675
20
78.3564037
40
0.3457509
50
133.7879184
51
155.9172189
0
ARC
8
right_labelLayer
10
193.0453058
20
78.2957782
40
0.427471
50
92.644602
51
133.4710449
0
ARC
8
right_labelLayer
10
193.0626298
20
78.1597249
40
0.5642865
50
89.9695487
51
93.7644126
0
ARC
8
right_labelLayer
10
193.069679
20
78.2885248
40
0.4355387
50
46.370855
51
90.8879126
0
ARC
8
right_labelLayer
10
193.1130268
20
78.3332758
40
0.3732378
50
17.725106
51
46.4473791
0
ARC
8
right_labelLayer
10
192.9108916
20
78.2636681
40
0.5869888
50
4.9427069
51
18.1900378
0
ARC
8
right_labelLayer
10
192.6536843
20
78.2358659
40
0.8456533
50
359.884926
51
5.3179229
0
ARC
8
right_labelLayer
10
192.7345265
20
78.2289737
40
0.7648271
50
349.8344098
51
0.3890849
0
ARC
8
right_labelLayer
10
193.0129592
20
78.1770324
40
0.4816021
50
332.6323037
51
350.0704835
0
ARC
8
right_labelLayer
10
193.1213359
20
78.1235177
40
0.3607621
50
313.6155406
51
332.2677062
0
ARC
8
right_labelLayer
10
193.0691104
20
78.1710719
40
0.4312456
50
269.1788004
51
314.2807749
0
ARC
8
right_labelLayer
10
193.0580303
20
78.2094086
40
0.4695636
50
250.4999692
51
270.5978342
0
ARC
8
right_labelLayer
10
193.043818
20
78.1562695
40
0.4147511
50
225.1300087
51
249.9002493
0
ARC
8
right_labelLayer
10
193.0215702
20
78.1316942
40
0.3816417
50
197.7933173
51
224.8941951
0
ARC
8
right_labelLayer
10
193.2298121
20
78.2030567
40
0.6017451
50
184.9926164
51
198.2040315
0
ARC
8
right_labelLayer
10
193.499268
20
78.232346
40
0.8727464
50
179.8804204
51
185.3686726
0
LINE
8
right_labelLayer
10
197.3023047
20
76.9115893
11
198.9900391
21
76.9115893
0
LINE
8
right_labelLayer
10
198.9900391
20
76.9115893
11
198.9900391
21
76.4440112
0
LINE
8
right_labelLayer
10
198.9900391
20
76.4440112
11
198.0860547
21
76.3371362
0
LINE
8
right_labelLayer
10
196.4205859
20
72.8058081
11
197.2844922
21
72.8058081
0
LINE
8
right_labelLayer
10
197.0484766
20
72.1422925
11
196.1623047
21
72.1422925
0
ARC
8
right_labelLayer
10
197.1440379
20
75.5916347
40
1.2013193
50
29.4584146
51
38.3576969
0
ARC
8
right_labelLayer
10
196.6531673
20
75.3114135
40
1.7665391
50
23.1844747
51
29.5422906
0
ARC
8
right_labelLayer
10
196.1847722
20
75.1036884
40
2.2788968
50
21.250757
51
23.3490519
0
ARC
8
right_labelLayer
10
196.9809066
20
75.4203192
40
1.422149
50
6.8504459
51
20.987203
0
ARC
8
right_labelLayer
10
196.5803586
20
75.3660113
40
1.8263256
50
359.8710764
51
7.0431819
0
ARC
8
right_labelLayer
10
196.71215
20
75.3442813
40
1.6946213
50
342.5649508
51
0.595769
0
ARC
8
right_labelLayer
10
197.0246872
20
75.2579772
40
1.3706309
50
310.6097741
51
342.0923764
0
ARC
8
right_labelLayer
10
196.8494263
20
75.4618374
40
1.6394714
50
284.931577
51
310.6222789
0
ARC
8
right_labelLayer
10
196.6301091
20
76.230352
40
2.4385866
50
272.5334625
51
285.2579814
0
ARC
8
right_labelLayer
10
196.5737223
20
77.0004506
40
3.2105023
50
269.9691242
51
272.9312819
0
ARC
8
right_labelLayer
10
196.5667204
20
76.1656757
40
2.3757328
50
263.4836786
51
270.1271409
0
ARC
8
right_labelLayer
10
196.5280194
20
75.798108
40
2.0061504
50
259.4964305
51
263.3904887
0
ARC
8
right_labelLayer
10
196.7675185
20
72.6576724
40
1.3154
50
117.3934739
51
128.409585
0
ARC
8
right_labelLayer
10
196.4288872
20
73.077768
40
0.7758453
50
128.0882318
51
147.1400242
0
ARC
8
right_labelLayer
10
196.2464471
20
73.2001997
40
0.5561793
50
147.5369291
51
180.2592517
0
ARC
8
right_labelLayer
10
196.0733758
20
73.1929488
40
0.3831316
50
179.2919902
51
198.357997
0
ARC
8
right_labelLayer
10
196.0016388
20
73.1740956
40
0.3091434
50
199.2291329
51
239.5690903
0
ARC
8
right_labelLayer
10
196.0615824
20
73.2570543
40
0.4111487
50
238.2217807
51
239.8439583
0
ARC
8
right_labelLayer
10
196.1085713
20
73.3539024
40
0.5185567
50
240.7304434
51
254.5025154
0
ARC
8
right_labelLayer
10
196.2500956
20
73.8415998
40
1.0263552
50
254.1637741
51
262.2122456
0
ARC
8
right_labelLayer
10
196.3622001
20
74.6246168
40
1.8173476
50
262.055594
51
267.2082257
0
ARC
8
right_labelLayer
10
196.416353
20
75.6179417
40
2.8121368
50
267.0919399
51
270.0862429
0
ARC
8
right_labelLayer
10
197.30065
20
69.7799093
40
3.025942
50
81.5744219
51
90.3059476
0
ARC
8
right_labelLayer
10
197.4666291
20
70.8623982
40
1.9308245
50
68.3671405
51
81.7398959
0
ARC
8
right_labelLayer
10
197.6834128
20
71.4164209
40
1.3359082
50
52.1879808
51
68.2500491
0
ARC
8
right_labelLayer
10
197.8351056
20
71.620817
40
1.0814451
50
8.6201347
51
51.898257
0
ARC
8
right_labelLayer
10
197.3034781
20
71.5083273
40
1.6242335
50
359.7430208
51
9.7326956
0
ARC
8
right_labelLayer
10
197.3272741
20
71.4809251
40
1.6005476
50
340.5268723
51
0.7201735
0
ARC
8
right_labelLayer
10
197.5624313
20
71.4223737
40
1.3595207
50
302.9903768
51
339.5494618
0
ARC
8
right_labelLayer
10
197.3162028
20
71.735127
40
1.7562909
50
303.1865868
51
304.1725142
0
ARC
8
right_labelLayer
10
197.0855151
20
72.1343847
40
2.2168441
50
286.2541978
51
302.5280297
0
ARC
8
right_labelLayer
10
196.6668373
20
73.5153754
40
3.6598558
50
276.4939931
51
286.4953594
0
ARC
8
right_labelLayer
10
196.4056132
20
75.6990647
40
5.8590916
50
269.7544947
51
276.6169619
0
ARC
8
right_labelLayer
10
196.361
20
73.9816352
40
4.1416543
50
262.5634665
51
270.2698731
0
ARC
8
right_labelLayer
10
196.1581466
20
72.4781022
40
2.6245212
50
251.2101822
51
262.7064167
0
ARC
8
right_labelLayer
10
195.8657715
20
71.6199409
40
1.717921
50
235.9667899
51
251.2229171
0
ARC
8
right_labelLayer
10
195.5558816
20
71.1778507
40
1.1781553
50
208.9036399
51
236.4231424
0
ARC
8
right_labelLayer
10
195.5843277
20
71.1659238
40
1.1975375
50
182.207961
51
207.7461844
0
ARC
8
right_labelLayer
10
195.946373
20
71.202092
40
1.5608652
50
179.9783013
51
183.0226417
0
ARC
8
right_labelLayer
10
195.5156353
20
71.2225134
40
1.1303014
50
138.3916212
51
181.005265
0
ARC
8
right_labelLayer
10
195.6349951
20
71.1152451
40
1.2907772
50
113.8121228
51
138.3496538
0
ARC
8
right_labelLayer
10
195.8614092
20
70.6263249
40
1.8295158
50
102.287065
51
114.1172916
0
ARC
8
right_labelLayer
10
195.7902678
20
73.1120513
40
0.7672149
50
216.586195
51
245.4968286
0
ARC
8
right_labelLayer
10
195.900141
20
73.2052615
40
0.911043
50
215.465141
51
217.1746241
0
ARC
8
right_labelLayer
10
195.7171578
20
73.073094
40
0.6853259
50
182.1767268
51
215.3415679
0
ARC
8
right_labelLayer
10
195.879924
20
73.0905626
40
0.848713
50
179.9834266
51
182.9378365
0
ARC
8
right_labelLayer
10
195.8765164
20
73.0979543
40
0.8453356
50
161.7225593
51
180.4843697
0
ARC
8
right_labelLayer
10
195.78357
20
73.1233183
40
0.749141
50
144.4962848
51
161.3351453
0
ARC
8
right_labelLayer
10
196.0313401
20
72.9386594
40
1.0581064
50
132.7259811
51
144.1479489
0
ARC
8
right_labelLayer
10
196.4284196
20
72.5146239
40
1.6390262
50
125.2212662
51
132.8655434
0
ARC
8
right_labelLayer
10
196.8276126
20
71.9602948
40
2.3221124
50
121.2351702
51
125.379469
0
ARC
8
right_labelLayer
10
196.1199263
20
75.1428539
40
1.2959093
50
215.1640679
51
247.4747931
0
ARC
8
right_labelLayer
10
196.3618421
20
75.3380841
40
1.606242
50
212.4712794
51
215.8874098
0
ARC
8
right_labelLayer
10
196.2982184
20
75.2925705
40
1.5281361
50
183.0160878
51
212.3123054
0
ARC
8
right_labelLayer
10
196.6334336
20
75.3299438
40
1.8649573
50
179.975847
51
183.6208295
0
ARC
8
right_labelLayer
10
196.9041299
20
75.3487685
40
2.1357296
50
166.8195813
51
180.4839299
0
ARC
8
right_labelLayer
10
196.1956221
20
75.5276516
40
1.4051541
50
132.3287735
51
167.3340987
0
ARC
8
right_labelLayer
10
196.2904096
20
75.3914031
40
1.5698595
50
106.2188701
51
131.5377822
0
ARC
8
right_labelLayer
10
196.5302452
20
74.6148315
40
2.3825505
50
93.6329929
51
106.5408381
0
ARC
8
right_labelLayer
10
196.6085363
20
73.7358998
40
3.2647539
50
89.9379789
51
94.0268151
0
ARC
8
right_labelLayer
10
196.6212153
20
74.16718
40
2.8334866
50
82.5852406
51
90.1849204
0
ARC
8
right_labelLayer
10
196.7077974
20
74.8370858
40
2.1580092
50
74.0088565
51
82.5694706
0
ARC
8
right_labelLayer
10
195.8403591
20
71.2014923
40
0.74242
50
179.2207456
51
200.9356159
0
ARC
8
right_labelLayer
10
195.7520737
20
71.1810495
40
0.6527773
50
202.0286918
51
236.1457309
0
ARC
8
right_labelLayer
10
195.8851282
20
71.3499911
40
0.867353
50
235.0635212
51
238.5042379
0
ARC
8
right_labelLayer
10
196.0398266
20
71.6263024
40
1.1838432
50
239.1066524
51
254.4862675
0
ARC
8
right_labelLayer
10
196.2460771
20
72.3374576
40
1.9242731
50
254.2324672
51
263.4936873
0
ARC
8
right_labelLayer
10
196.3756242
20
73.434682
40
3.0291133
50
263.4107768
51
270.1458069
0
ARC
8
right_labelLayer
10
196.3894107
20
74.2536861
40
3.8481123
50
269.9095035
51
270.0000507
0
ARC
8
right_labelLayer
10
196.4071319
20
75.3749405
40
4.9693983
50
269.7957176
51
275.399096
0
ARC
8
right_labelLayer
10
196.5931213
20
73.4655717
40
3.0510051
50
275.2956834
51
283.3516348
0
ARC
8
right_labelLayer
10
196.8961335
20
72.2175282
40
1.7667337
50
283.1370866
51
295.8572937
0
ARC
8
right_labelLayer
10
197.1206564
20
71.7273634
40
1.2277773
50
296.4047826
51
301.8008508
0
ARC
8
right_labelLayer
10
197.2086922
20
71.6060155
40
1.0783083
50
301.2230631
51
318.6238477
0
ARC
8
right_labelLayer
10
197.4072381
20
71.4226111
40
0.8081172
50
319.076579
51
1.1406944
0
ARC
8
right_labelLayer
10
197.2150859
20
71.4466227
40
1.0001408
50
359.5460474
51
10.9904432
0
ARC
8
right_labelLayer
10
197.6014085
20
71.5252001
40
0.6059332
50
10.6608522
51
30.9362839
0
ARC
8
right_labelLayer
10
197.7238935
20
71.593176
40
0.4659511
50
31.5095559
51
58.0777574
0
ARC
8
right_labelLayer
10
197.6090902
20
71.3876135
40
0.7012202
50
58.9973182
51
73.8586117
0
ARC
8
right_labelLayer
10
197.3770485
20
70.6279714
40
1.4954718
50
73.4100704
51
81.5907131
0
ARC
8
right_labelLayer
10
197.1804459
20
69.3556858
40
2.7828433
50
81.4172402
51
86.5756976
0
ARC
8
right_labelLayer
10
197.0599629
20
67.4387783
40
4.7035283
50
86.5053929
51
90.1399199
0
ARC
8
right_labelLayer
10
196.1517323
20
70.4430821
40
1.6992433
50
89.6435123
51
100.0209411
0
ARC
8
right_labelLayer
10
196.0449341
20
71.0240573
40
1.1085551
50
99.8103512
51
116.8229086
0
ARC
8
right_labelLayer
10
195.9409007
20
71.2434549
40
0.865842
50
117.2305275
51
130.5023121
0
ARC
8
right_labelLayer
10
195.8874806
20
71.312112
40
0.7789516
50
130.7944584
51
169.0413294
0
ARC
8
right_labelLayer
10
196.2808311
20
71.2194771
40
1.1828495
50
168.2580777
51
180.3820755
0
ARC
8
right_labelLayer
10
196.9416793
20
75.337505
40
1.4429325
50
179.5617222
51
191.6528996
0
ARC
8
right_labelLayer
10
196.4399894
20
75.2291124
40
0.9297018
50
191.3554754
51
213.3660417
0
ARC
8
right_labelLayer
10
196.3195153
20
75.1595515
40
0.7908695
50
213.9574763
51
227.797089
0
ARC
8
right_labelLayer
10
196.4243303
20
75.2866769
40
0.9554821
50
228.2620476
51
254.7341485
0
ARC
8
right_labelLayer
10
196.558247
20
75.7457411
40
1.433632
50
254.4016056
51
267.4348643
0
ARC
8
right_labelLayer
10
196.5931885
20
76.2144094
40
1.9034454
50
267.0155163
51
270.0321862
0
ARC
8
right_labelLayer
10
196.6160217
20
75.9212371
40
1.6104199
50
269.2256573
51
284.3773449
0
ARC
8
right_labelLayer
10
196.8355196
20
75.1565074
40
0.8154546
50
282.7796633
51
346.4828635
0
ARC
8
right_labelLayer
10
196.1792817
20
75.3423922
40
1.4972125
50
345.4361966
51
0.7466232
0
ARC
8
right_labelLayer
10
196.0870323
20
75.384632
40
1.5894974
50
359.1806296
51
15.0431838
0
ARC
8
right_labelLayer
10
196.8072611
20
75.5947306
40
0.8395719
50
13.9535782
51
77.6673856
0
ARC
8
right_labelLayer
10
196.6006192
20
74.8542136
40
1.6077312
50
76.1095054
51
90.7028185
0
ARC
8
right_labelLayer
10
196.5696901
20
74.9107652
40
1.551099
50
89.5859734
51
101.3333757
0
ARC
8
right_labelLayer
10
196.4588438
20
75.4394593
40
1.0109424
50
101.062054
51
121.9738662
0
ARC
8
right_labelLayer
10
196.3809489
20
75.5795924
40
0.8508597
50
122.5211713
51
134.9965956
0
ARC
8
right_labelLayer
10
196.4130167
20
75.5603839
40
0.8871636
50
135.5839951
51
163.0015847
0
ARC
8
right_labelLayer
10
196.8815153
20
75.406828
40
1.3801216
50
162.5912398
51
175.7342621
0
ARC
8
right_labelLayer
10
197.4433955
20
75.3514749
40
1.9446088
50
175.3392718
51
180.0863997
0
LINE
8
right_labelLayer
10
204.0710547
20
72.0309643
11
203.3318359
21
72.0309643
0
LINE
8
right_labelLayer
10
203.3318359
20
72.0309643
11
203.3318359
21
75.18823
0
LINE
8
right_labelLayer
10
200.7312109
20
74.582605
11
200.7312109
21
72.0309643
0
LINE
8
right_labelLayer
10
200.7312109
20
72.0309643
11
199.9919922
21
72.0309643
0
LINE
8
right_labelLayer
10
199.9919922
20
72.0309643
11
199.9919922
21
78.9600268
0
LINE
8
right_labelLayer
10
199.9919922
20
78.9600268
11
200.7312109
21
78.9600268
0
LINE
8
right_labelLayer
10
200.7312109
20
78.9600268
11
200.7312109
21
76.862605
0
LINE
8
right_labelLayer
10
200.6955859
20
76.2347143
11
200.7401172
21
76.2347143
0
LINE
8
right_labelLayer
10
204.0710547
20
75.2149487
11
204.0710547
21
72.0309643
0
ARC
8
right_labelLayer
10
201.2423046
20
75.2002148
40
2.0895657
50
359.6713748
51
8.6877727
0
ARC
8
right_labelLayer
10
202.0167483
20
75.3230386
40
1.3054629
50
8.4931271
51
22.6580184
0
ARC
8
right_labelLayer
10
202.4102206
20
75.4865534
40
0.879368
50
22.7024846
51
42.3419291
0
ARC
8
right_labelLayer
10
202.454453
20
75.5064517
40
0.8334082
50
43.3790838
51
71.5386295
0
ARC
8
right_labelLayer
10
202.2890609
20
75.044309
40
1.3241837
50
71.0827431
51
84.3691674
0
ARC
8
right_labelLayer
10
202.2148136
20
74.4130498
40
1.9597184
50
84.019761
51
90.151014
0
ARC
8
right_labelLayer
10
202.1937171
20
74.1358328
40
2.2369852
50
89.5919488
51
100.3595085
0
ARC
8
right_labelLayer
10
202.0353186
20
74.9682413
40
1.3896755
50
100.1067942
51
118.0847336
0
ARC
8
right_labelLayer
10
201.8742152
20
75.2843667
40
1.0349511
50
118.4551358
51
139.6705962
0
ARC
8
right_labelLayer
10
202.035952
20
75.1738178
40
1.2299633
50
140.620827
51
160.5049176
0
ARC
8
right_labelLayer
10
202.8884775
20
74.8582135
40
2.1389785
50
160.1566682
51
171.5313254
0
ARC
8
right_labelLayer
10
204.2679469
20
74.639654
40
3.5356179
50
171.32027
51
178.3406572
0
ARC
8
right_labelLayer
10
205.5025937
20
74.5845109
40
4.7713831
50
178.1080762
51
180.0228865
0
ARC
8
right_labelLayer
10
194.0816981
20
76.8546735
40
6.6495175
50
357.8673637
51
0.0683421
0
ARC
8
right_labelLayer
10
196.3404087
20
76.7684936
40
4.3891649
50
354.9828658
51
357.894345
0
ARC
8
right_labelLayer
10
197.8325906
20
76.6385513
40
2.8913365
50
351.9711687
51
354.9620127
0
ARC
8
right_labelLayer
10
201.9922296
20
75.4514743
40
1.4769057
50
119.8316114
51
147.9725812
0
ARC
8
right_labelLayer
10
202.1710834
20
75.1767146
40
1.8043231
50
116.665834
51
120.4182643
0
ARC
8
right_labelLayer
10
202.2044583
20
75.0890319
40
1.897682
50
96.6652474
51
116.3782282
0
ARC
8
right_labelLayer
10
202.2764068
20
74.5926289
40
2.3991209
50
89.8927303
51
96.9959078
0
ARC
8
right_labelLayer
10
202.2994136
20
73.9926865
40
2.9991163
50
80.6863063
51
90.3537204
0
ARC
8
right_labelLayer
10
202.4861597
20
75.0910957
40
1.8849756
50
65.6022621
51
80.8844293
0
ARC
8
right_labelLayer
10
202.7104053
20
75.5961442
40
1.3324064
50
46.740074
51
65.4130904
0
ARC
8
right_labelLayer
10
202.7256474
20
75.6442663
40
1.2871018
50
19.2204077
51
45.7661025
0
ARC
8
right_labelLayer
10
201.9834958
20
75.3691432
40
2.0785141
50
6.4733752
51
19.6468241
0
ARC
8
right_labelLayer
10
200.8745396
20
75.2264125
40
3.1965357
50
359.7945197
51
6.7744229
0
LINE
8
right_labelLayer
10
207.8339453
20
72.6410425
11
207.8339453
21
72.0754956
0
LINE
8
right_labelLayer
10
205.6430078
20
73.4336987
11
205.6430078
21
76.3371362
0
LINE
8
right_labelLayer
10
205.6430078
20
76.3371362
11
204.9438672
21
76.3371362
0
LINE
8
right_labelLayer
10
204.9438672
20
76.3371362
11
204.9438672
21
76.6933862
0
LINE
8
right_labelLayer
10
204.9438672
20
76.6933862
11
205.6430078
21
77.0006518
0
LINE
8
right_labelLayer
10
205.6430078
20
77.0006518
11
205.9547266
21
78.0426831
0
LINE
8
right_labelLayer
10
205.9547266
20
78.0426831
11
206.3822266
21
78.0426831
0
LINE
8
right_labelLayer
10
206.3822266
20
78.0426831
11
206.3822266
21
76.9115893
0
LINE
8
right_labelLayer
10
206.3822266
20
76.9115893
11
207.7983203
21
76.9115893
0
LINE
8
right_labelLayer
10
207.7983203
20
76.9115893
11
207.7983203
21
76.3371362
0
LINE
8
right_labelLayer
10
207.7983203
20
76.3371362
11
206.3822266
21
76.3371362
0
LINE
8
right_labelLayer
10
206.3822266
20
76.3371362
11
206.3822266
21
73.4648706
0
ARC
8
right_labelLayer
10
207.1710473
20
74.9796556
40
2.427681
50
269.8803244
51
278.3028526
0
ARC
8
right_labelLayer
10
207.194447
20
74.7890031
40
2.2356519
50
278.4150249
51
279.0081015
0
ARC
8
right_labelLayer
10
206.9216457
20
76.5316788
40
3.9995488
50
278.9590888
51
280.5102722
0
ARC
8
right_labelLayer
10
207.1813328
20
75.1382055
40
2.5820852
50
280.4848849
51
282.6268481
0
ARC
8
right_labelLayer
10
207.409062
20
74.1264939
40
1.5450611
50
282.5875122
51
285.5795723
0
ARC
8
right_labelLayer
10
207.523845
20
73.7044835
40
1.1077315
50
285.7231724
51
286.2567287
0
ARC
8
right_labelLayer
10
207.5231497
20
72.7328475
40
0.7271214
50
287.9889813
51
295.30476
0
ARC
8
right_labelLayer
10
207.347778
20
73.2634378
40
1.2859382
50
283.3070073
51
288.1197243
0
ARC
8
right_labelLayer
10
207.1625084
20
74.0362755
40
2.0806704
50
280.0070665
51
283.3734314
0
ARC
8
right_labelLayer
10
207.0384682
20
74.7094304
40
2.7651435
50
279.1865511
51
280.1143847
0
ARC
8
right_labelLayer
10
206.9624719
20
75.1417513
40
3.2040576
50
275.5260745
51
279.2938763
0
ARC
8
right_labelLayer
10
207.0482223
20
74.2461321
40
2.3043434
50
270.8932991
51
275.5483313
0
ARC
8
right_labelLayer
10
207.0589822
20
73.8380679
40
1.8961661
50
270.0036064
51
270.7604433
0
ARC
8
right_labelLayer
10
207.0292711
20
73.8724017
40
1.9307303
50
253.7848076
51
270.8852749
0
ARC
8
right_labelLayer
10
206.8005321
20
73.0923116
40
1.1177994
50
190.3817848
51
253.8772204
0
ARC
8
right_labelLayer
10
207.9664232
20
73.4075467
40
2.3235626
50
179.3551139
51
192.847744
0
ARC
8
right_labelLayer
10
207.8707309
20
73.4555598
40
1.4885335
50
179.6416103
51
189.7505982
0
ARC
8
right_labelLayer
10
207.3452486
20
73.3618322
40
0.9547744
50
189.5478849
51
205.7874097
0
ARC
8
right_labelLayer
10
207.1293099
20
73.2622566
40
0.717034
50
206.1295096
51
221.4083016
0
ARC
8
right_labelLayer
10
207.1050892
20
73.2438793
40
0.6867167
50
221.5949274
51
262.3505267
0
ARC
8
right_labelLayer
10
207.1626775
20
73.54003
40
0.9880555
50
261.3267138
51
270.1913074
0
LINE
8
bottom_outsideCutPath
10
275.2
20
313.2
11
275.2
21
159.6
0
LINE
8
bottom_outsideCutPath
10
275.2
20
159.6
11
396.8
21
159.6
0
LINE
8
bottom_outsideCutPath
10
396.8
20
159.6
11
396.8
21
313.2
0
LINE
8
bottom_outsideCutPath
10
396.8
20
313.2
11
275.2
21
313.2
0
LINE
8
bottom_labelLayer
10
297.9643175
20
228.9546823
11
297.8218175
21
228.9546823
0
LINE
8
bottom_labelLayer
10
297.8218175
20
228.9546823
11
297.4061925
21
227.2803073
0
LINE
8
bottom_labelLayer
10
297.4061925
20
227.2803073
11
295.9930675
21
227.2803073
0
LINE
8
bottom_labelLayer
10
295.9930675
20
227.2803073
11
295.9930675
21
245.7578073
0
LINE
8
bottom_labelLayer
10
295.9930675
20
245.7578073
11
297.9643175
21
245.7578073
0
LINE
8
bottom_labelLayer
10
297.9643175
20
245.7578073
11
297.9643175
21
241.2690573
0
LINE
8
bottom_labelLayer
10
297.8693175
20
238.5615573
11
297.9643175
21
238.5615573
0
ARC
8
bottom_labelLayer
10
302.1084517
20
234.4845187
40
6.0248288
50
74.2393379
51
90.562372
0
ARC
8
bottom_labelLayer
10
302.5068346
20
235.9460043
40
4.5100999
50
38.5631287
51
74.0670419
0
ARC
8
bottom_labelLayer
10
301.4816226
20
235.1488412
40
5.8086897
50
16.4709221
51
38.4075377
0
ARC
8
bottom_labelLayer
10
298.5281167
20
234.2227086
40
8.9037244
50
5.1338529
51
16.7973338
0
ARC
8
bottom_labelLayer
10
294.7996098
20
233.8266396
40
12.6528614
50
359.8779296
51
5.4093686
0
ARC
8
bottom_labelLayer
10
295.8947427
20
233.7314947
40
11.557901
50
350.6562787
51
0.338027
0
ARC
8
bottom_labelLayer
10
299.9240149
20
233.0461598
40
7.4708525
50
335.830596
51
350.8254786
0
ARC
8
bottom_labelLayer
10
301.6964297
20
232.2811588
40
5.5406603
50
321.3161379
51
335.543632
0
ARC
8
bottom_labelLayer
10
302.3740236
20
231.7290216
40
4.6666336
50
274.0640088
51
321.4081014
0
ARC
8
bottom_labelLayer
10
302.0583502
20
233.7286505
40
6.6858493
50
269.9225922
51
275.5481417
0
ARC
8
bottom_labelLayer
10
302.0160743
20
233.0219408
40
5.9792259
50
255.7755409
51
270.3185539
0
ARC
8
bottom_labelLayer
10
301.8454424
20
232.2638435
40
5.2024854
50
245.9801559
51
255.5455838
0
ARC
8
bottom_labelLayer
10
301.5149492
20
231.4952807
40
4.3659622
50
215.5850165
51
245.836169
0
ARC
8
bottom_labelLayer
10
256.8652547
20
241.2343123
40
41.0990775
50
358.1123232
51
0.0484376
0
ARC
8
bottom_labelLayer
10
268.3039336
20
240.8502833
40
29.6539569
50
355.7238592
51
358.1259023
0
ARC
8
bottom_labelLayer
10
273.2904446
20
240.5081699
40
24.6558368
50
355.4717058
51
355.652633
0
ARC
8
bottom_labelLayer
10
301.6406125
20
235.9979782
40
4.4818615
50
95.1835096
51
145.1109025
0
ARC
8
bottom_labelLayer
10
302.0345513
20
233.7765293
40
6.7325442
50
89.8743361
51
96.8145442
0
ARC
8
bottom_labelLayer
10
301.7230474
20
233.3192135
40
5.5393725
50
89.5731242
51
100.7324266
0
ARC
8
bottom_labelLayer
10
301.3129794
20
235.391016
40
3.4274894
50
100.4469357
51
119.6700695
0
ARC
8
bottom_labelLayer
10
300.9327218
20
236.1019527
40
2.6216222
50
120.1402882
51
142.4249077
0
ARC
8
bottom_labelLayer
10
301.5618266
20
235.6857786
40
3.3744343
50
143.3382285
51
161.2559871
0
ARC
8
bottom_labelLayer
10
304.1926079
20
234.7517617
40
6.1659501
50
160.8926239
51
171.2334412
0
ARC
8
bottom_labelLayer
10
308.5844219
20
234.0432566
40
10.6144842
50
171.0667764
51
177.8456884
0
ARC
8
bottom_labelLayer
10
313.1519058
20
233.8109571
40
15.1875924
50
177.6176784
51
180.0425346
0
ARC
8
bottom_labelLayer
10
310.9979714
20
233.7487877
40
13.0337533
50
179.7762694
51
185.7075232
0
ARC
8
bottom_labelLayer
10
305.8592034
20
233.2193116
40
7.8678199
50
185.5924718
51
194.2050771
0
ARC
8
bottom_labelLayer
10
302.5673917
20
232.3649706
40
4.467057
50
193.9430373
51
208.0218513
0
ARC
8
bottom_labelLayer
10
301.2355307
20
231.6874182
40
2.9731405
50
208.5536917
51
217.5605102
0
ARC
8
bottom_labelLayer
10
301.1270013
20
231.6422734
40
2.8597493
50
218.1690469
51
253.8047173
0
ARC
8
bottom_labelLayer
10
301.6574313
20
233.277648
40
4.5784798
50
253.1382598
51
266.8482961
0
ARC
8
bottom_labelLayer
10
301.8061671
20
235.0316611
40
6.3382314
50
266.3775443
51
270.0510779
0
ARC
8
bottom_labelLayer
10
301.8538678
20
232.6228691
40
3.9296618
50
269.3868811
51
285.8630801
0
ARC
8
bottom_labelLayer
10
302.1458169
20
231.5677287
40
2.8349126
50
286.0162873
51
326.8497423
0
ARC
8
bottom_labelLayer
10
300.7367194
20
232.5012054
40
4.5251372
50
326.7104966
51
343.6661826
0
ARC
8
bottom_labelLayer
10
298.0989654
20
233.3072177
40
7.2831763
50
343.4171384
51
353.6369168
0
ARC
8
bottom_labelLayer
10
294.1148764
20
233.7799563
40
11.2951497
50
353.4934873
51
0.2205369
0
ARC
8
bottom_labelLayer
10
293.7637528
20
233.8705753
40
11.6462851
50
359.7680715
51
6.3095325
0
ARC
8
bottom_labelLayer
10
298.1506408
20
234.3739989
40
7.2306668
50
6.1648673
51
16.0396301
0
ARC
8
bottom_labelLayer
10
300.9766448
20
235.2068206
40
4.284611
50
15.7779358
51
32.0151337
0
ARC
8
bottom_labelLayer
10
301.8578595
20
235.7114588
40
3.2701273
50
32.7034297
51
35.5242342
0
ARC
8
bottom_labelLayer
10
302.1801923
20
235.9405584
40
2.8746728
50
35.5408424
51
79.8011254
0
ARC
8
bottom_labelLayer
10
301.7941539
20
234.299439
40
4.5590909
50
78.6781192
51
90.3749675
0
ARC
8
bottom_labelLayer
10
311.947866
20
233.7310381
40
10.1823079
50
349.1761851
51
0.3862634
0
ARC
8
bottom_labelLayer
10
315.3760068
20
233.0476299
40
6.6868758
50
330.2507038
51
349.411651
0
ARC
8
bottom_labelLayer
10
316.4310184
20
232.499275
40
5.499017
50
318.1439729
51
329.7566318
0
ARC
8
bottom_labelLayer
10
316.6214288
20
232.3466802
40
5.2553913
50
278.8959139
51
317.997912
0
ARC
8
bottom_labelLayer
10
316.1308034
20
234.6973108
40
7.6545761
50
269.7502874
51
279.8033212
0
ARC
8
bottom_labelLayer
10
316.0512342
20
233.3728768
40
6.3302381
50
253.5436922
51
270.4182405
0
ARC
8
bottom_labelLayer
10
315.8405113
20
232.5577502
40
5.4888838
50
238.8115469
51
253.2428373
0
ARC
8
bottom_labelLayer
10
315.7725062
20
232.4209922
40
5.3366898
50
207.7947006
51
238.6757922
0
ARC
8
bottom_labelLayer
10
316.7483639
20
233.0186553
40
6.4790692
50
205.6559997
51
208.446106
0
ARC
8
bottom_labelLayer
10
317.5000055
20
233.3318401
40
7.2923325
50
188.9102472
51
205.3171403
0
ARC
8
bottom_labelLayer
10
320.0331066
20
233.7608644
40
9.8613653
50
179.7744628
51
189.0932801
0
ARC
8
bottom_labelLayer
10
320.4067815
20
233.8690061
40
10.2351987
50
169.244296
51
180.3880718
0
ARC
8
bottom_labelLayer
10
316.9309869
20
234.5560444
40
6.6923029
50
150.711151
51
169.4695408
0
ARC
8
bottom_labelLayer
10
315.8214047
20
235.1258548
40
5.4459993
50
138.1759398
51
150.2287358
0
ARC
8
bottom_labelLayer
10
315.6368339
20
235.2674916
40
5.2140377
50
99.1759333
51
137.9832741
0
ARC
8
bottom_labelLayer
10
316.1448398
20
232.8767673
40
7.6561233
50
89.7326258
51
100.075989
0
ARC
8
bottom_labelLayer
10
316.2463745
20
233.909239
40
6.6238951
50
73.522267
51
90.5692308
0
ARC
8
bottom_labelLayer
10
316.6348268
20
235.3205858
40
5.1604057
50
41.1445637
51
73.2133859
0
ARC
8
bottom_labelLayer
10
315.8933018
20
234.6832553
40
6.1381563
50
13.5014325
51
41.0703394
0
ARC
8
bottom_labelLayer
10
313.0284285
20
233.9335561
40
9.099087
50
1.1277207
51
13.8799999
0
ARC
8
bottom_labelLayer
10
310.5603969
20
233.8013105
40
11.5695458
50
359.9919365
51
1.5419651
0
ARC
8
bottom_labelLayer
10
322.1965603
20
233.7484538
40
9.9823743
50
179.7059632
51
187.9160763
0
ARC
8
bottom_labelLayer
10
318.5353391
20
233.2225231
40
6.2836311
50
187.7639228
51
200.097675
0
ARC
8
bottom_labelLayer
10
316.5183775
20
232.4835065
40
4.1355437
50
200.0845827
51
216.9131705
0
ARC
8
bottom_labelLayer
10
315.7818609
20
231.9575986
40
3.230876
50
217.3009572
51
261.7099096
0
ARC
8
bottom_labelLayer
10
316.1237778
20
233.5891791
40
4.8957926
50
260.5032982
51
270.2476926
0
ARC
8
bottom_labelLayer
10
316.1890417
20
233.2719265
40
4.5787066
50
269.4481544
51
284.7255636
0
ARC
8
bottom_labelLayer
10
316.5515102
20
231.9276459
40
3.1864562
50
284.5662327
51
322.6333865
0
ARC
8
bottom_labelLayer
10
315.7040412
20
232.5399055
40
4.2316769
50
323.0089174
51
342.639054
0
ARC
8
bottom_labelLayer
10
313.2800845
20
233.3321248
40
6.7816778
50
342.3615683
51
353.7537511
0
ARC
8
bottom_labelLayer
10
309.703949
20
233.7631799
40
10.3835576
50
353.5363102
51
0.2014181
0
ARC
8
bottom_labelLayer
10
310.2518678
20
233.8498831
40
9.8357028
50
359.7075646
51
7.8972706
0
ARC
8
bottom_labelLayer
10
313.8539797
20
234.3662789
40
6.196824
50
7.7439938
51
20.069027
0
ARC
8
bottom_labelLayer
10
315.8612151
20
235.1028599
40
4.0587103
50
20.025704
51
37.435056
0
ARC
8
bottom_labelLayer
10
316.5271993
20
235.5754331
40
3.242766
50
37.9577586
51
80.4006215
0
ARC
8
bottom_labelLayer
10
316.1487402
20
233.8867833
40
4.9717254
50
79.3453489
51
90.31747
0
ARC
8
bottom_labelLayer
10
316.0786647
20
234.1672792
40
4.6913458
50
89.4805979
51
103.8805068
0
ARC
8
bottom_labelLayer
10
315.6844704
20
235.6683688
40
3.1396058
50
103.4685231
51
142.311882
0
ARC
8
bottom_labelLayer
10
316.450818
20
235.1294198
40
4.075765
50
142.9025831
51
162.3749557
0
ARC
8
bottom_labelLayer
10
318.8655608
20
234.3247121
40
6.6209074
50
162.0653059
51
173.1674927
0
ARC
8
bottom_labelLayer
10
322.6308318
20
233.8444742
40
10.4166107
50
173.008623
51
180.2463754
0
LINE
8
bottom_labelLayer
10
331.5705675
20
228.9071823
11
331.5705675
21
227.3990573
0
LINE
8
bottom_labelLayer
10
325.7280675
20
231.0209323
11
325.7280675
21
238.7634323
0
LINE
8
bottom_labelLayer
10
325.7280675
20
238.7634323
11
323.8636925
21
238.7634323
0
LINE
8
bottom_labelLayer
10
323.8636925
20
238.7634323
11
323.8636925
21
239.7134323
0
LINE
8
bottom_labelLayer
10
323.8636925
20
239.7134323
11
325.7280675
21
240.5328073
0
LINE
8
bottom_labelLayer
10
325.7280675
20
240.5328073
11
326.5593175
21
243.3115573
0
LINE
8
bottom_labelLayer
10
326.5593175
20
243.3115573
11
327.6993175
21
243.3115573
0
LINE
8
bottom_labelLayer
10
327.6993175
20
243.3115573
11
327.6993175
21
240.2953073
0
LINE
8
bottom_labelLayer
10
327.6993175
20
240.2953073
11
331.4755675
21
240.2953073
0
LINE
8
bottom_labelLayer
10
331.4755675
20
240.2953073
11
331.4755675
21
238.7634323
0
LINE
8
bottom_labelLayer
10
331.4755675
20
238.7634323
11
327.6993175
21
238.7634323
0
LINE
8
bottom_labelLayer
10
327.6993175
20
238.7634323
11
327.6993175
21
231.1040573
0
ARC
8
bottom_labelLayer
10
329.8028348
20
235.1435425
40
6.4738744
50
269.8803674
51
278.3028194
0
ARC
8
bottom_labelLayer
10
329.864709
20
234.6384485
40
5.9651509
50
278.4153176
51
279.0080549
0
ARC
8
bottom_labelLayer
10
329.1381526
20
239.2799449
40
10.6631639
50
278.9589477
51
280.5104656
0
ARC
8
bottom_labelLayer
10
329.8303595
20
235.5658642
40
6.8851312
50
280.4847661
51
282.626863
0
ARC
8
bottom_labelLayer
10
330.4374533
20
232.86875
40
4.1205383
50
282.5876573
51
285.5794449
0
ARC
8
bottom_labelLayer
10
330.7421208
20
231.7482138
40
2.9593552
50
285.724138
51
286.25672
0
ARC
8
bottom_labelLayer
10
330.7417974
20
229.1519527
40
1.9389436
50
287.9888599
51
295.3048148
0
ARC
8
bottom_labelLayer
10
330.2741416
20
230.5668386
40
3.429101
50
283.306927
51
288.119739
0
ARC
8
bottom_labelLayer
10
329.7801578
20
232.6273719
40
5.5480139
50
280.00694
51
283.3735723
0
ARC
8
bottom_labelLayer
10
329.4497011
20
234.4206579
40
7.3714537
50
279.1861982
51
280.1143164
0
ARC
8
bottom_labelLayer
10
329.2466774
20
235.5754255
40
8.5438378
50
275.526016
51
279.2939571
0
ARC
8
bottom_labelLayer
10
329.475316
20
233.1872282
40
6.1447226
50
270.8932337
51
275.5484123
0
ARC
8
bottom_labelLayer
10
329.5040549
20
232.0947134
40
5.0519061
50
270.0029778
51
270.7604944
0
ARC
8
bottom_labelLayer
10
329.4247708
20
232.1908046
40
5.1486119
50
253.7847879
51
270.8852618
0
ARC
8
bottom_labelLayer
10
328.8147976
20
230.1105656
40
2.9807969
50
190.3817687
51
253.8772377
0
ARC
8
bottom_labelLayer
10
331.923819
20
230.9511908
40
6.196144
50
179.3550867
51
192.8477667
0
ARC
8
bottom_labelLayer
10
331.6686889
20
231.0792324
40
3.969449
50
179.6416714
51
189.7505916
0
ARC
8
bottom_labelLayer
10
330.267397
20
230.8292956
40
2.5460866
50
189.5479704
51
205.7873557
0
ARC
8
bottom_labelLayer
10
329.6915263
20
230.5637447
40
1.912075
50
206.129454
51
221.4083724
0
ARC
8
bottom_labelLayer
10
329.6269513
20
230.5147467
40
1.8312442
50
221.5949117
51
262.3505207
0
ARC
8
bottom_labelLayer
10
329.7805211
20
231.3044672
40
2.6347997
50
261.3266401
51
270.1912845
0
LINE
8
bottom_labelLayer
10
340.1561925
20
228.9071823
11
340.1561925
21
227.3990573
0
LINE
8
bottom_labelLayer
10
334.3136925
20
231.0209323
11
334.3136925
21
238.7634323
0
LINE
8
bottom_labelLayer
10
334.3136925
20
238.7634323
11
332.4493175
21
238.7634323
0
LINE
8
bottom_labelLayer
10
332.4493175
20
238.7634323
11
332.4493175
21
239.7134323
0
LINE
8
bottom_labelLayer
10
332.4493175
20
239.7134323
11
334.3136925
21
240.5328073
0
LINE
8
bottom_labelLayer
10
334.3136925
20
240.5328073
11
335.1449425
21
243.3115573
0
LINE
8
bottom_labelLayer
10
335.1449425
20
243.3115573
11
336.2849425
21
243.3115573
0
LINE
8
bottom_labelLayer
10
336.2849425
20
243.3115573
11
336.2849425
21
240.2953073
0
LINE
8
bottom_labelLayer
10
336.2849425
20
240.2953073
11
340.0611925
21
240.2953073
0
LINE
8
bottom_labelLayer
10
340.0611925
20
240.2953073
11
340.0611925
21
238.7634323
0
LINE
8
bottom_labelLayer
10
340.0611925
20
238.7634323
11
336.2849425
21
238.7634323
0
LINE
8
bottom_labelLayer
10
336.2849425
20
238.7634323
11
336.2849425
21
231.1040573
0
ARC
8
bottom_labelLayer
10
338.3884598
20
235.1435425
40
6.4738744
50
269.8803674
51
278.3028194
0
ARC
8
bottom_labelLayer
10
338.450334
20
234.6384485
40
5.9651509
50
278.4153176
51
279.0080549
0
ARC
8
bottom_labelLayer
10
337.7237776
20
239.2799449
40
10.6631639
50
278.9589477
51
280.5104656
0
ARC
8
bottom_labelLayer
10
338.4159845
20
235.5658642
40
6.8851312
50
280.4847661
51
282.626863
0
ARC
8
bottom_labelLayer
10
339.0230783
20
232.86875
40
4.1205383
50
282.5876573
51
285.5794449
0
ARC
8
bottom_labelLayer
10
339.3277458
20
231.7482138
40
2.9593552
50
285.724138
51
286.25672
0
ARC
8
bottom_labelLayer
10
339.3274224
20
229.1519527
40
1.9389436
50
287.9888599
51
295.3048148
0
ARC
8
bottom_labelLayer
10
338.8597666
20
230.5668386
40
3.429101
50
283.306927
51
288.119739
0
ARC
8
bottom_labelLayer
10
338.3657828
20
232.6273719
40
5.5480139
50
280.00694
51
283.3735723
0
ARC
8
bottom_labelLayer
10
338.0353261
20
234.4206579
40
7.3714537
50
279.1861982
51
280.1143164
0
ARC
8
bottom_labelLayer
10
337.8323024
20
235.5754255
40
8.5438378
50
275.526016
51
279.2939571
0
ARC
8
bottom_labelLayer
10
338.060941
20
233.1872282
40
6.1447226
50
270.8932337
51
275.5484123
0
ARC
8
bottom_labelLayer
10
338.0896799
20
232.0947134
40
5.0519061
50
270.0029778
51
270.7604944
0
ARC
8
bottom_labelLayer
10
338.0103958
20
232.1908046
40
5.1486119
50
253.7847879
51
270.8852618
0
ARC
8
bottom_labelLayer
10
337.4004226
20
230.1105656
40
2.9807969
50
190.3817687
51
253.8772377
0
ARC
8
bottom_labelLayer
10
340.509444
20
230.9511908
40
6.196144
50
179.3550867
51
192.8477667
0
ARC
8
bottom_labelLayer
10
340.2543139
20
231.0792324
40
3.969449
50
179.6416714
51
189.7505916
0
ARC
8
bottom_labelLayer
10
338.853022
20
230.8292956
40
2.5460866
50
189.5479704
51
205.7873557
0
ARC
8
bottom_labelLayer
10
338.2771513
20
230.5637447
40
1.912075
50
206.129454
51
221.4083724
0
ARC
8
bottom_labelLayer
10
338.2125763
20
230.5147467
40
1.8312442
50
221.5949117
51
262.3505207
0
ARC
8
bottom_labelLayer
10
338.3661461
20
231.3044672
40
2.6347997
50
261.3266401
51
270.1912845
0
ARC
8
bottom_labelLayer
10
343.808491
20
233.7310381
40
10.1823079
50
349.1761851
51
0.3862634
0
ARC
8
bottom_labelLayer
10
347.2366318
20
233.0476299
40
6.6868758
50
330.2507038
51
349.411651
0
ARC
8
bottom_labelLayer
10
348.2916434
20
232.499275
40
5.499017
50
318.1439729
51
329.7566318
0
ARC
8
bottom_labelLayer
10
348.4820538
20
232.3466802
40
5.2553913
50
278.8959139
51
317.997912
0
ARC
8
bottom_labelLayer
10
347.9914284
20
234.6973108
40
7.6545761
50
269.7502874
51
279.8033212
0
ARC
8
bottom_labelLayer
10
347.9118592
20
233.3728768
40
6.3302381
50
253.5436922
51
270.4182405
0
ARC
8
bottom_labelLayer
10
347.7011363
20
232.5577502
40
5.4888838
50
238.8115469
51
253.2428373
0
ARC
8
bottom_labelLayer
10
347.6331312
20
232.4209922
40
5.3366898
50
207.7947006
51
238.6757922
0
ARC
8
bottom_labelLayer
10
348.6089889
20
233.0186553
40
6.4790692
50
205.6559997
51
208.446106
0
ARC
8
bottom_labelLayer
10
349.3606305
20
233.3318401
40
7.2923325
50
188.9102472
51
205.3171403
0
ARC
8
bottom_labelLayer
10
351.8937316
20
233.7608644
40
9.8613653
50
179.7744628
51
189.0932801
0
ARC
8
bottom_labelLayer
10
352.2674065
20
233.8690061
40
10.2351987
50
169.244296
51
180.3880718
0
ARC
8
bottom_labelLayer
10
348.7916119
20
234.5560444
40
6.6923029
50
150.711151
51
169.4695408
0
ARC
8
bottom_labelLayer
10
347.6820297
20
235.1258548
40
5.4459993
50
138.1759398
51
150.2287358
0
ARC
8
bottom_labelLayer
10
347.4974589
20
235.2674916
40
5.2140377
50
99.1759333
51
137.9832741
0
ARC
8
bottom_labelLayer
10
348.0054648
20
232.8767673
40
7.6561233
50
89.7326258
51
100.075989
0
ARC
8
bottom_labelLayer
10
348.1069995
20
233.909239
40
6.6238951
50
73.522267
51
90.5692308
0
ARC
8
bottom_labelLayer
10
348.4954518
20
235.3205858
40
5.1604057
50
41.1445637
51
73.2133859
0
ARC
8
bottom_labelLayer
10
347.7539268
20
234.6832553
40
6.1381563
50
13.5014325
51
41.0703394
0
ARC
8
bottom_labelLayer
10
344.8890535
20
233.9335561
40
9.099087
50
1.1277207
51
13.8799999
0
ARC
8
bottom_labelLayer
10
342.4210219
20
233.8013105
40
11.5695458
50
359.9919365
51
1.5419651
0
ARC
8
bottom_labelLayer
10
354.0571853
20
233.7484538
40
9.9823743
50
179.7059632
51
187.9160763
0
ARC
8
bottom_labelLayer
10
350.3959641
20
233.2225231
40
6.2836311
50
187.7639228
51
200.097675
0
ARC
8
bottom_labelLayer
10
348.3790025
20
232.4835065
40
4.1355437
50
200.0845827
51
216.9131705
0
ARC
8
bottom_labelLayer
10
347.6424859
20
231.9575986
40
3.230876
50
217.3009572
51
261.7099096
0
ARC
8
bottom_labelLayer
10
347.9844028
20
233.5891791
40
4.8957926
50
260.5032982
51
270.2476926
0
ARC
8
bottom_labelLayer
10
348.0496667
20
233.2719265
40
4.5787066
50
269.4481544
51
284.7255636
0
ARC
8
bottom_labelLayer
10
348.4121352
20
231.9276459
40
3.1864562
50
284.5662327
51
322.6333865
0
ARC
8
bottom_labelLayer
10
347.5646662
20
232.5399055
40
4.2316769
50
323.0089174
51
342.639054
0
ARC
8
bottom_labelLayer
10
345.1407095
20
233.3321248
40
6.7816778
50
342.3615683
51
353.7537511
0
ARC
8
bottom_labelLayer
10
341.564574
20
233.7631799
40
10.3835576
50
353.5363102
51
0.2014181
0
ARC
8
bottom_labelLayer
10
342.1124928
20
233.8498831
40
9.8357028
50
359.7075646
51
7.8972706
0
ARC
8
bottom_labelLayer
10
345.7146047
20
234.3662789
40
6.196824
50
7.7439938
51
20.069027
0
ARC
8
bottom_labelLayer
10
347.7218401
20
235.1028599
40
4.0587103
50
20.025704
51
37.435056
0
ARC
8
bottom_labelLayer
10
348.3878243
20
235.5754331
40
3.242766
50
37.9577586
51
80.4006215
0
ARC
8
bottom_labelLayer
10
348.0093652
20
233.8867833
40
4.9717254
50
79.3453489
51
90.31747
0
ARC
8
bottom_labelLayer
10
347.9392897
20
234.1672792
40
4.6913458
50
89.4805979
51
103.8805068
0
ARC
8
bottom_labelLayer
10
347.5450954
20
235.6683688
40
3.1396058
50
103.4685231
51
142.311882
0
ARC
8
bottom_labelLayer
10
348.311443
20
235.1294198
40
4.075765
50
142.9025831
51
162.3749557
0
ARC
8
bottom_labelLayer
10
350.7261858
20
234.3247121
40
6.6209074
50
162.0653059
51
173.1674927
0
ARC
8
bottom_labelLayer
10
354.4914568
20
233.8444742
40
10.4166107
50
173.008623
51
180.2463754
0
LINE
8
bottom_labelLayer
10
376.0068175
20
227.2803073
11
374.0355675
21
227.2803073
0
LINE
8
bottom_labelLayer
10
374.0355675
20
227.2803073
11
374.0355675
21
235.7471823
0
LINE
8
bottom_labelLayer
10
367.7061925
20
234.5478073
11
367.7061925
21
227.2803073
0
LINE
8
bottom_labelLayer
10
367.7061925
20
227.2803073
11
365.7349425
21
227.2803073
0
LINE
8
bottom_labelLayer
10
365.7349425
20
227.2803073
11
365.7349425
21
235.7471823
0
LINE
8
bottom_labelLayer
10
359.4174425
20
234.1084323
11
359.4174425
21
227.2803073
0
LINE
8
bottom_labelLayer
10
359.4174425
20
227.2803073
11
357.4461925
21
227.2803073
0
LINE
8
bottom_labelLayer
10
357.4461925
20
227.2803073
11
357.4461925
21
240.2953073
0
LINE
8
bottom_labelLayer
10
357.4461925
20
240.2953073
11
359.0493175
21
240.2953073
0
LINE
8
bottom_labelLayer
10
359.0493175
20
240.2953073
11
359.3699425
21
238.5140573
0
LINE
8
bottom_labelLayer
10
359.3699425
20
238.5140573
11
359.4649425
21
238.5140573
0
LINE
8
bottom_labelLayer
10
367.3024425
20
238.3240573
11
367.3974425
21
238.3240573
0
LINE
8
bottom_labelLayer
10
376.0068175
20
235.7709323
11
376.0068175
21
227.2803073
0
ARC
8
bottom_labelLayer
10
368.2203056
20
235.7781557
40
5.8153444
50
359.6948319
51
8.147148
0
ARC
8
bottom_labelLayer
10
370.3622878
20
236.0951458
40
3.6500722
50
7.9864409
51
20.7949672
0
ARC
8
bottom_labelLayer
10
371.5463023
20
236.5486988
40
2.3821683
50
20.7071175
51
40.0217557
0
ARC
8
bottom_labelLayer
10
371.8060509
20
236.7186485
40
2.0742897
50
41.0408135
51
73.1792719
0
ARC
8
bottom_labelLayer
10
371.4301978
20
235.5818748
40
3.2713353
50
72.6395582
51
86.2568113
0
ARC
8
bottom_labelLayer
10
371.3097905
20
234.2825831
40
4.5758524
50
85.8144681
51
90.0685295
0
ARC
8
bottom_labelLayer
10
371.2655542
20
233.7862416
40
5.0723388
50
89.5621361
51
101.2961665
0
ARC
8
bottom_labelLayer
10
370.883522
20
235.615164
40
3.2040559
50
101.0032341
51
121.7840489
0
ARC
8
bottom_labelLayer
10
370.5930833
20
236.1336803
40
2.6104488
50
122.3597312
51
140.2884099
0
ARC
8
bottom_labelLayer
10
371.1156175
20
235.7505411
40
3.2574504
50
140.9765443
51
161.1699373
0
ARC
8
bottom_labelLayer
10
373.0841137
20
235.0499994
40
5.346773
50
160.8731865
51
172.5272423
0
ARC
8
bottom_labelLayer
10
376.3734495
20
234.5957213
40
8.6672825
50
172.377671
51
180.1829442
0
ARC
8
bottom_labelLayer
10
378.5881517
20
234.5479267
40
10.8819591
50
179.894063
51
180.0006288
0
ARC
8
bottom_labelLayer
10
359.9196806
20
235.7781557
40
5.8153444
50
359.6948319
51
8.147148
0
ARC
8
bottom_labelLayer
10
362.0616628
20
236.0951458
40
3.6500722
50
7.9864409
51
20.7949672
0
ARC
8
bottom_labelLayer
10
363.2456773
20
236.5486988
40
2.3821683
50
20.7071175
51
40.0217557
0
ARC
8
bottom_labelLayer
10
363.5108258
20
236.7223791
40
2.0677675
50
41.0610884
51
72.899349
0
ARC
8
bottom_labelLayer
10
363.1278539
20
235.5822287
40
3.2702698
50
72.360105
51
85.9561911
0
ARC
8
bottom_labelLayer
10
362.9982103
20
234.2423387
40
4.6160979
50
85.5238354
51
90.0793489
0
ARC
8
bottom_labelLayer
10
362.9539896
20
233.9625602
40
4.8960182
50
89.5573135
51
101.4832076
0
ARC
8
bottom_labelLayer
10
362.5782029
20
235.7232048
40
3.0958552
50
101.1546247
51
123.0655811
0
ARC
8
bottom_labelLayer
10
362.3227661
20
236.1681646
40
2.5837516
50
123.7020614
51
142.3022095
0
ARC
8
bottom_labelLayer
10
362.9211181
20
235.7622353
40
3.3057226
50
143.076984
51
161.3913785
0
ARC
8
bottom_labelLayer
10
365.3330397
20
234.9104007
40
5.8634929
50
161.0234529
51
171.4469003
0
ARC
8
bottom_labelLayer
10
369.3259003
20
234.284933
40
9.9050007
50
171.304198
51
178.3501675
0
ARC
8
bottom_labelLayer
10
373.1419106
20
234.1144971
40
13.7244695
50
178.0976033
51
180.0253191
0
ARC
8
bottom_labelLayer
10
362.8045055
20
236.55023
40
3.8741836
50
117.12095
51
149.5423783
0
ARC
8
bottom_labelLayer
10
363.1999005
20
235.8474677
40
4.6800297
50
93.834332
51
117.5072223
0
ARC
8
bottom_labelLayer
10
363.309105
20
234.8801752
40
5.6526329
50
89.9661712
51
94.2831191
0
ARC
8
bottom_labelLayer
10
363.3745408
20
234.0792178
40
6.4538882
50
77.5572309
51
90.5512997
0
ARC
8
bottom_labelLayer
10
363.9733906
20
236.6549849
40
3.8097072
50
52.7027073
51
78.0053799
0
ARC
8
bottom_labelLayer
10
364.1867483
20
237.0519445
40
3.3653857
50
22.2097971
51
51.4970504
0
ARC
8
bottom_labelLayer
10
370.9684486
20
236.2775055
40
4.1158789
50
119.4041802
51
150.1828793
0
ARC
8
bottom_labelLayer
10
371.424736
20
235.5836755
40
4.9446774
50
118.2582928
51
120.0630481
0
ARC
8
bottom_labelLayer
10
371.4236184
20
235.5326063
40
4.9891947
50
95.8635134
51
117.9693208
0
ARC
8
bottom_labelLayer
10
371.5924743
20
234.3116371
40
6.2211763
50
89.9197077
51
96.261743
0
ARC
8
bottom_labelLayer
10
371.6466819
20
233.6807797
40
6.8521785
50
79.9361093
51
90.3803709
0
ARC
8
bottom_labelLayer
10
372.1032518
20
236.1535182
40
4.3377379
50
62.9723254
51
80.1665114
0
ARC
8
bottom_labelLayer
10
372.5805342
20
237.1327195
40
3.2486515
50
44.2290074
51
62.6228956
0
ARC
8
bottom_labelLayer
10
372.4385776
20
237.0700094
40
3.3945445
50
19.5612167
51
43.316108
0
ARC
8
bottom_labelLayer
10
370.3769231
20
236.2956516
40
5.5966135
50
7.5041868
51
19.9645275
0
ARC
8
bottom_labelLayer
10
366.9654532
20
235.8165802
40
9.0414793
50
359.7107282
51
7.6907163
0
ENDSEC
0
EOF