<svg width="396.8mm" height="310.2mm" viewBox="0 0 396.8 310.2" xmlns="http://www.w3.org/2000/svg" version="1.1" preserveAspectRatio="xMidYMid meet"><g id="svgGroup" stroke-linecap="round" fill-rule="evenodd" font-size="9pt" stroke="#000" stroke-width="0.25mm" fill="none" style="stroke:#000;stroke-width:0.25mm;fill:none"><path d="M 0 264.6 L 0 310.2 L 121.6 310.2 L 121.6 264.6 L 0 264.6 Z" id="front_outsideCutPath" stroke="#FF0000" stroke-width="0.1" style="stroke:#FF0000;stroke-width:0.1" vector-effect="non-scaling-stroke"/><path d="M 67.446 290.844 L 66.707 290.844 L 66.707 287.687 Q 66.707 287.09 66.435 286.797 A 0.833 0.833 0 0 0 66.094 286.578 Q 65.959 286.531 65.794 286.513 A 1.96 1.96 0 0 0 65.585 286.503 Q 65.08 286.503 64.754 286.682 A 1.042 1.042 0 0 0 64.463 286.917 Q 64.106 287.331 64.106 288.284 L 64.106 290.844 L 63.367 290.844 L 63.367 285.964 L 63.968 285.964 L 64.089 286.632 L 64.124 286.632 A 1.497 1.497 0 0 1 64.711 286.098 A 1.8 1.8 0 0 1 64.761 286.073 A 2.002 2.002 0 0 1 65.473 285.883 A 2.42 2.42 0 0 1 65.674 285.875 Q 66.259 285.875 66.652 286.062 A 1.328 1.328 0 0 1 67.001 286.3 A 1.281 1.281 0 0 1 67.313 286.79 Q 67.388 286.992 67.421 287.242 A 3.226 3.226 0 0 1 67.446 287.66 L 67.446 290.844 Z M 53.245 285.964 L 53.245 286.538 L 52.003 286.538 L 52.003 290.844 L 51.264 290.844 L 51.264 286.538 L 50.391 286.538 L 50.391 286.204 L 51.264 285.937 L 51.264 285.665 Q 51.264 283.866 52.836 283.866 A 2.38 2.38 0 0 1 53.172 283.892 Q 53.336 283.916 53.519 283.961 A 4.785 4.785 0 0 1 53.744 284.022 L 53.553 284.614 A 3.59 3.59 0 0 0 53.273 284.536 Q 53.132 284.503 53.008 284.488 A 1.59 1.59 0 0 0 52.822 284.476 A 0.997 0.997 0 0 0 52.582 284.504 A 0.64 0.64 0 0 0 52.203 284.755 Q 52.003 285.033 52.003 285.648 L 52.003 285.964 L 53.245 285.964 Z M 71.209 290.234 L 71.209 290.8 A 0.727 0.727 0 0 1 71.123 290.834 Q 71.031 290.865 70.899 290.888 A 2.765 2.765 0 0 1 70.855 290.896 Q 70.637 290.931 70.459 290.933 A 1.896 1.896 0 0 1 70.434 290.933 A 1.931 1.931 0 0 1 69.865 290.857 Q 69.018 290.595 69.018 289.442 L 69.018 286.538 L 68.319 286.538 L 68.319 286.182 L 69.018 285.875 L 69.33 284.833 L 69.757 284.833 L 69.757 285.964 L 71.174 285.964 L 71.174 286.538 L 69.757 286.538 L 69.757 289.41 A 1.489 1.489 0 0 0 69.779 289.672 Q 69.805 289.815 69.861 289.929 A 0.717 0.717 0 0 0 69.967 290.087 A 0.687 0.687 0 0 0 70.389 290.312 A 0.988 0.988 0 0 0 70.541 290.323 A 2.428 2.428 0 0 0 70.897 290.298 A 2.236 2.236 0 0 0 70.92 290.294 A 4 4 0 0 0 71.026 290.276 Q 71.136 290.256 71.209 290.234 Z M 56.946 285.928 L 56.843 286.614 Q 56.591 286.558 56.388 286.549 A 1.734 1.734 0 0 0 56.309 286.547 A 1.281 1.281 0 0 0 55.363 286.956 A 1.752 1.752 0 0 0 55.296 287.028 A 1.688 1.688 0 0 0 54.889 287.976 A 2.244 2.244 0 0 0 54.875 288.226 L 54.875 290.844 L 54.136 290.844 L 54.136 285.964 L 54.746 285.964 L 54.831 286.868 L 54.866 286.868 Q 55.138 286.391 55.521 286.133 A 1.474 1.474 0 0 1 56.362 285.875 A 3.394 3.394 0 0 1 56.666 285.888 A 2.477 2.477 0 0 1 56.946 285.928 Z M 61.47 290.263 A 2.062 2.062 0 0 0 61.716 289.926 Q 62.071 289.318 62.071 288.4 Q 62.071 287.925 61.971 287.531 A 2.302 2.302 0 0 0 61.468 286.556 A 1.935 1.935 0 0 0 60.57 285.977 A 2.484 2.484 0 0 0 59.84 285.875 A 2.871 2.871 0 0 0 59.325 285.919 A 1.955 1.955 0 0 0 58.184 286.54 A 2.042 2.042 0 0 0 57.933 286.888 Q 57.74 287.225 57.654 287.657 A 3.838 3.838 0 0 0 57.587 288.4 A 3.698 3.698 0 0 0 57.634 288.999 A 2.735 2.735 0 0 0 57.863 289.744 A 2.43 2.43 0 0 0 57.917 289.85 A 2.001 2.001 0 0 0 58.647 290.626 A 2.058 2.058 0 0 0 59.119 290.836 A 2.374 2.374 0 0 0 59.809 290.933 A 2.87 2.87 0 0 0 60.31 290.892 A 1.971 1.971 0 0 0 61.47 290.263 Z M 58.353 288.4 A 3.743 3.743 0 0 0 58.389 288.934 Q 58.428 289.206 58.511 289.426 A 1.551 1.551 0 0 0 58.727 289.825 A 1.212 1.212 0 0 0 59.516 290.289 A 1.836 1.836 0 0 0 59.827 290.314 Q 60.553 290.314 60.929 289.827 A 1.587 1.587 0 0 0 61.176 289.346 Q 61.249 289.123 61.281 288.852 A 3.894 3.894 0 0 0 61.305 288.4 Q 61.305 287.469 60.929 286.986 A 1.216 1.216 0 0 0 60.173 286.535 A 1.864 1.864 0 0 0 59.818 286.503 A 1.759 1.759 0 0 0 59.38 286.554 A 1.177 1.177 0 0 0 58.723 286.979 A 1.528 1.528 0 0 0 58.485 287.438 Q 58.415 287.649 58.382 287.907 A 3.906 3.906 0 0 0 58.353 288.4 Z" id="front_labelLayer" stroke="#777777" fill="#777777" style="stroke:#777777;fill:#777777" vector-effect="non-scaling-stroke"/><path d="M 124.6 264.6 L 124.6 310.2 L 272.2 310.2 L 272.2 264.6 L 124.6 264.6 Z" id="left_outsideCutPath" stroke="#FF0000" stroke-width="0.1" style="stroke:#FF0000;stroke-width:0.1" vector-effect="non-scaling-stroke"/><path d="M 201.644 285.964 L 201.644 286.538 L 200.402 286.538 L 200.402 290.844 L 199.662 290.844 L 199.662 286.538 L 198.79 286.538 L 198.79 286.204 L 199.662 285.937 L 199.662 285.665 Q 199.662 283.866 201.234 283.866 A 2.38 2.38 0 0 1 201.571 283.892 Q 201.735 283.916 201.917 283.961 A 4.785 4.785 0 0 1 202.143 284.022 L 201.951 284.614 A 3.59 3.59 0 0 0 201.672 284.536 Q 201.531 284.503 201.407 284.488 A 1.59 1.59 0 0 0 201.221 284.476 A 0.997 0.997 0 0 0 200.981 284.504 A 0.64 0.64 0 0 0 200.602 284.755 Q 200.402 285.033 200.402 285.648 L 200.402 285.964 L 201.644 285.964 Z M 198.184 288.07 L 198.184 288.538 L 194.822 288.538 A 2.967 2.967 0 0 0 194.874 289.034 Q 194.973 289.536 195.256 289.842 A 1.343 1.343 0 0 0 195.961 290.24 A 2.035 2.035 0 0 0 196.416 290.288 A 3.904 3.904 0 0 0 197.878 289.998 A 4.474 4.474 0 0 0 197.975 289.958 L 197.975 290.617 Q 197.583 290.787 197.233 290.86 Q 196.884 290.933 196.389 290.933 A 2.873 2.873 0 0 1 195.671 290.848 A 2.034 2.034 0 0 1 194.682 290.274 A 2.176 2.176 0 0 1 194.161 289.319 Q 194.071 288.98 194.058 288.578 A 4.223 4.223 0 0 1 194.056 288.444 Q 194.056 287.264 194.637 286.569 A 1.894 1.894 0 0 1 196.018 285.881 A 2.613 2.613 0 0 1 196.198 285.875 A 2.252 2.252 0 0 1 196.832 285.96 A 1.714 1.714 0 0 1 197.65 286.478 A 2.067 2.067 0 0 1 198.118 287.423 A 3.009 3.009 0 0 1 198.184 288.07 Z M 204.779 290.234 L 204.779 290.8 A 0.727 0.727 0 0 1 204.693 290.834 Q 204.601 290.865 204.469 290.888 A 2.765 2.765 0 0 1 204.425 290.896 Q 204.207 290.931 204.029 290.933 A 1.896 1.896 0 0 1 204.004 290.933 A 1.931 1.931 0 0 1 203.435 290.857 Q 202.588 290.595 202.588 289.442 L 202.588 286.538 L 201.889 286.538 L 201.889 286.182 L 202.588 285.875 L 202.9 284.833 L 203.327 284.833 L 203.327 285.964 L 204.743 285.964 L 204.743 286.538 L 203.327 286.538 L 203.327 289.41 A 1.489 1.489 0 0 0 203.349 289.672 Q 203.374 289.815 203.431 289.929 A 0.717 0.717 0 0 0 203.537 290.087 A 0.687 0.687 0 0 0 203.959 290.312 A 0.988 0.988 0 0 0 204.111 290.323 A 2.428 2.428 0 0 0 204.467 290.298 A 2.236 2.236 0 0 0 204.49 290.294 A 4 4 0 0 0 204.596 290.276 Q 204.706 290.256 204.779 290.234 Z M 192.76 283.915 L 192.76 290.844 L 192.021 290.844 L 192.021 283.915 L 192.76 283.915 Z M 194.84 287.937 L 197.391 287.937 A 2.519 2.519 0 0 0 197.361 287.532 Q 197.325 287.314 197.249 287.14 A 1.144 1.144 0 0 0 197.08 286.866 A 1.013 1.013 0 0 0 196.47 286.518 A 1.519 1.519 0 0 0 196.189 286.494 A 1.457 1.457 0 0 0 195.768 286.552 A 1.126 1.126 0 0 0 195.252 286.877 Q 194.935 287.223 194.854 287.81 A 2.793 2.793 0 0 0 194.84 287.937 Z" id="left_labelLayer" stroke="#777777" fill="#777777" style="stroke:#777777;fill:#777777" vector-effect="non-scaling-stroke"/><path d="M 275.2 156.6 L 275.2 310.2 L 396.8 310.2 L 396.8 156.6 L 275.2 156.6 Z" id="top_outsideCutPath" stroke="#FF0000" stroke-width="0.1" style="stroke:#FF0000;stroke-width:0.1" vector-effect="non-scaling-stroke"/><path d="M 344.74 236.82 L 344.597 236.82 A 18.655 18.655 0 0 1 344.72 238.199 A 15.632 15.632 0 0 1 344.74 238.981 L 344.74 244.337 L 342.769 244.337 L 342.769 225.479 L 344.372 225.479 L 344.645 227.261 L 344.74 227.261 A 5.306 5.306 0 0 1 345.507 226.389 A 4.103 4.103 0 0 1 346.509 225.717 A 4.937 4.937 0 0 1 347.924 225.303 A 6.39 6.39 0 0 1 348.825 225.242 A 6.042 6.042 0 0 1 350.532 225.47 A 4.466 4.466 0 0 1 352.821 227.011 Q 353.971 228.458 354.181 230.856 A 12.836 12.836 0 0 1 354.228 231.975 A 11.558 11.558 0 0 1 354.075 233.92 Q 353.898 234.956 353.516 235.787 A 5.541 5.541 0 0 1 352.797 236.957 A 4.667 4.667 0 0 1 349.48 238.701 A 6.686 6.686 0 0 1 348.825 238.732 A 5.979 5.979 0 0 1 347.322 238.549 A 5.202 5.202 0 0 1 346.503 238.263 Q 345.452 237.794 344.74 236.82 Z M 325.479 236.868 L 325.479 238.376 A 1.939 1.939 0 0 1 325.249 238.467 Q 325.003 238.548 324.652 238.611 A 7.371 7.371 0 0 1 324.535 238.631 Q 323.953 238.725 323.479 238.731 A 5.052 5.052 0 0 1 323.412 238.732 Q 320.401 238.732 319.791 236.201 A 6.196 6.196 0 0 1 319.636 234.754 L 319.636 227.011 L 317.772 227.011 L 317.772 226.061 L 319.636 225.242 L 320.467 222.463 L 321.607 222.463 L 321.607 225.479 L 325.384 225.479 L 325.384 227.011 L 321.607 227.011 L 321.607 234.671 A 3.969 3.969 0 0 0 321.665 235.368 Q 321.786 236.048 322.166 236.476 Q 322.724 237.105 323.697 237.105 A 6.474 6.474 0 0 0 324.646 237.037 A 5.965 5.965 0 0 0 324.707 237.028 Q 325.171 236.954 325.452 236.875 A 2.959 2.959 0 0 0 325.479 236.867 Z M 339.132 233.956 A 10.182 10.182 0 0 0 339.313 231.975 A 11.57 11.57 0 0 0 339.309 231.662 Q 339.28 230.578 339.045 229.658 A 6.138 6.138 0 0 0 337.704 227.059 Q 336.095 225.242 333.364 225.242 A 7.656 7.656 0 0 0 331.988 225.36 A 5.214 5.214 0 0 0 328.946 227.017 A 5.446 5.446 0 0 0 328.277 227.945 Q 327.355 229.552 327.355 231.975 A 9.861 9.861 0 0 0 327.479 233.572 A 7.292 7.292 0 0 0 328.091 235.561 A 6.479 6.479 0 0 0 328.235 235.842 A 5.337 5.337 0 0 0 330.181 237.913 A 5.489 5.489 0 0 0 331.441 238.473 A 6.33 6.33 0 0 0 333.281 238.732 A 7.655 7.655 0 0 0 334.617 238.62 A 5.255 5.255 0 0 0 337.71 236.945 A 5.499 5.499 0 0 0 338.365 236.045 Q 338.899 235.131 339.132 233.956 Z M 329.397 231.975 Q 329.397 234.469 330.395 235.775 Q 331.392 237.081 333.328 237.081 A 4.579 4.579 0 0 0 334.536 236.931 A 3.186 3.186 0 0 0 336.267 235.781 A 4.232 4.232 0 0 0 336.926 234.497 Q 337.12 233.904 337.205 233.18 A 10.384 10.384 0 0 0 337.271 231.975 Q 337.271 229.493 336.267 228.205 A 3.243 3.243 0 0 0 334.251 227.002 A 4.972 4.972 0 0 0 333.304 226.916 A 4.691 4.691 0 0 0 332.136 227.053 A 3.14 3.14 0 0 0 330.383 228.187 A 4.076 4.076 0 0 0 329.749 229.411 Q 329.562 229.974 329.475 230.662 A 10.417 10.417 0 0 0 329.397 231.975 Z M 344.74 231.536 L 344.74 231.975 Q 344.74 234.718 345.654 235.9 Q 346.474 236.959 348.181 237.069 A 6.338 6.338 0 0 0 348.587 237.081 Q 350.274 237.081 351.23 235.716 A 4.766 4.766 0 0 0 351.883 234.323 Q 352.072 233.684 352.143 232.917 A 10.502 10.502 0 0 0 352.186 231.951 A 9.948 9.948 0 0 0 352.092 230.541 Q 351.989 229.826 351.774 229.245 A 4.179 4.179 0 0 0 351.23 228.217 A 3.066 3.066 0 0 0 348.987 226.939 A 4.241 4.241 0 0 0 348.54 226.916 Q 347.26 226.916 346.434 227.371 A 2.605 2.605 0 0 0 345.654 228.021 A 3.377 3.377 0 0 0 345.126 228.983 Q 344.755 229.991 344.74 231.536 Z" id="top_labelLayer" stroke="#777777" fill="#777777" style="stroke:#777777;fill:#777777" vector-effect="non-scaling-stroke"/><path d="M 0 216 L 0 261.6 L 121.6 261.6 L 121.6 216 L 0 216 Z" id="back_outsideCutPath" stroke="#FF0000" stroke-width="0.1" style="stroke:#FF0000;stroke-width:0.1" vector-effect="non-scaling-stroke"/><path d="M 67.043 239.722 L 67.079 239.722 A 4.376 4.376 0 0 1 67.187 239.575 Q 67.368 239.34 67.662 239.009 L 69.239 237.339 L 70.116 237.339 L 68.139 239.419 L 70.254 242.22 L 69.359 242.22 L 67.636 239.913 L 67.079 240.394 L 67.079 242.22 L 66.349 242.22 L 66.349 235.291 L 67.079 235.291 L 67.079 238.965 A 4.925 4.925 0 0 1 67.077 239.104 Q 67.07 239.332 67.045 239.703 A 31.079 31.079 0 0 1 67.043 239.722 Z M 52.085 241.592 L 52.032 241.592 L 51.876 242.22 L 51.346 242.22 L 51.346 235.291 L 52.085 235.291 L 52.085 236.974 A 15.412 15.412 0 0 1 52.077 237.495 Q 52.068 237.758 52.05 237.989 L 52.085 237.989 A 1.681 1.681 0 0 1 53.312 237.277 A 2.525 2.525 0 0 1 53.617 237.259 A 2.259 2.259 0 0 1 54.253 237.344 A 1.691 1.691 0 0 1 55.111 237.916 A 2.178 2.178 0 0 1 55.493 238.652 Q 55.643 239.136 55.643 239.775 Q 55.643 240.978 55.107 241.643 A 1.75 1.75 0 0 1 53.863 242.297 A 2.507 2.507 0 0 1 53.617 242.309 A 2.242 2.242 0 0 1 53.054 242.24 A 1.951 1.951 0 0 1 52.747 242.133 Q 52.352 241.957 52.085 241.592 Z M 60.484 242.22 L 59.936 242.22 L 59.789 241.525 L 59.754 241.525 Q 59.388 241.984 59.025 242.146 A 1.705 1.705 0 0 1 58.673 242.258 Q 58.502 242.293 58.305 242.304 A 3.327 3.327 0 0 1 58.119 242.309 A 2.269 2.269 0 0 1 57.658 242.265 Q 57.252 242.181 56.981 241.935 A 1.215 1.215 0 0 1 56.615 241.294 A 1.86 1.86 0 0 1 56.57 240.871 A 1.279 1.279 0 0 1 57.297 239.663 Q 57.839 239.375 58.784 239.327 A 7.221 7.221 0 0 1 58.934 239.321 L 59.762 239.294 L 59.762 238.991 A 2.123 2.123 0 0 0 59.742 238.684 Q 59.719 238.527 59.67 238.402 A 0.825 0.825 0 0 0 59.515 238.143 A 0.75 0.75 0 0 0 59.208 237.943 Q 59.085 237.898 58.932 237.88 A 1.826 1.826 0 0 0 58.725 237.869 A 2.407 2.407 0 0 0 58.171 237.938 Q 57.784 238.03 57.344 238.243 L 57.117 237.678 A 3.408 3.408 0 0 1 57.775 237.407 A 3.88 3.88 0 0 1 57.908 237.37 A 3.423 3.423 0 0 1 58.769 237.259 Q 59.642 237.259 60.063 237.647 Q 60.393 237.95 60.464 238.542 A 2.909 2.909 0 0 1 60.484 238.889 L 60.484 242.22 Z M 65.262 237.504 L 65.035 238.132 A 3.289 3.289 0 0 0 64.678 238.013 A 3.928 3.928 0 0 0 64.501 237.969 A 3.054 3.054 0 0 0 64.268 237.926 Q 64.117 237.905 63.988 237.905 A 1.64 1.64 0 0 0 63.323 238.03 Q 62.501 238.392 62.501 239.802 A 3.58 3.58 0 0 0 62.537 240.323 Q 62.615 240.852 62.864 241.182 A 1.174 1.174 0 0 0 63.625 241.637 A 1.788 1.788 0 0 0 63.939 241.663 A 3.094 3.094 0 0 0 64.793 241.539 A 3.821 3.821 0 0 0 65.191 241.401 L 65.191 242.055 A 2.103 2.103 0 0 1 64.676 242.237 Q 64.353 242.309 63.957 242.309 A 2.763 2.763 0 0 1 63.285 242.232 A 1.873 1.873 0 0 1 62.316 241.657 A 2.138 2.138 0 0 1 61.872 240.84 Q 61.774 240.516 61.746 240.126 A 4.47 4.47 0 0 1 61.735 239.811 Q 61.735 238.924 62.044 238.329 A 2.038 2.038 0 0 1 62.325 237.918 A 1.914 1.914 0 0 1 63.373 237.315 A 2.902 2.902 0 0 1 64.006 237.25 A 3.336 3.336 0 0 1 64.71 237.326 A 3.69 3.69 0 0 1 64.915 237.376 Q 65.124 237.434 65.262 237.504 Z M 53.51 237.878 A 2.077 2.077 0 0 0 53.108 237.914 Q 52.879 237.96 52.705 238.062 A 0.983 0.983 0 0 0 52.419 238.312 A 1.265 1.265 0 0 0 52.236 238.661 Q 52.112 239.008 52.09 239.534 A 5.695 5.695 0 0 0 52.085 239.775 A 4.888 4.888 0 0 0 52.109 240.28 Q 52.163 240.79 52.333 241.1 A 1.115 1.115 0 0 0 52.428 241.247 Q 52.736 241.644 53.376 241.685 A 2.377 2.377 0 0 0 53.528 241.69 A 1.474 1.474 0 0 0 53.947 241.634 A 1.063 1.063 0 0 0 54.543 241.194 A 1.697 1.697 0 0 0 54.753 240.739 Q 54.819 240.524 54.85 240.263 A 4.236 4.236 0 0 0 54.877 239.766 A 4.367 4.367 0 0 0 54.851 239.269 Q 54.788 238.724 54.577 238.396 A 1.226 1.226 0 0 0 54.543 238.346 Q 54.209 237.878 53.51 237.878 Z M 59.745 240.261 L 59.745 239.82 L 59.005 239.851 A 5.428 5.428 0 0 0 58.572 239.882 Q 58.144 239.932 57.876 240.05 A 1.135 1.135 0 0 0 57.734 240.125 A 0.789 0.789 0 0 0 57.358 240.697 A 1.168 1.168 0 0 0 57.344 240.88 A 1.056 1.056 0 0 0 57.371 241.122 Q 57.424 241.349 57.587 241.49 A 0.805 0.805 0 0 0 57.889 241.65 Q 58.008 241.685 58.151 241.695 A 1.663 1.663 0 0 0 58.266 241.699 A 2.035 2.035 0 0 0 58.706 241.654 Q 59.012 241.586 59.238 241.416 A 1.234 1.234 0 0 0 59.351 241.32 A 1.238 1.238 0 0 0 59.696 240.702 Q 59.744 240.503 59.745 240.268 A 2.326 2.326 0 0 0 59.745 240.261 Z" id="back_labelLayer" stroke="#777777" fill="#777777" style="stroke:#777777;fill:#777777" vector-effect="non-scaling-stroke"/><path d="M 124.6 216 L 124.6 261.6 L 272.2 261.6 L 272.2 216 L 124.6 216 Z" id="right_outsideCutPath" stroke="#FF0000" stroke-width="0.1" style="stroke:#FF0000;stroke-width:0.1" vector-effect="non-scaling-stroke"/><path d="M 204.071 241.169 L 203.332 241.169 L 203.332 238.012 Q 203.332 237.415 203.06 237.121 A 0.833 0.833 0 0 0 202.718 236.903 Q 202.584 236.856 202.419 236.838 A 1.96 1.96 0 0 0 202.21 236.827 Q 201.439 236.827 201.085 237.246 Q 200.762 237.629 200.734 238.458 A 4.771 4.771 0 0 0 200.731 238.617 L 200.731 241.169 L 199.992 241.169 L 199.992 234.24 L 200.731 234.24 L 200.731 236.337 Q 200.731 236.716 200.696 236.965 L 200.74 236.965 A 1.477 1.477 0 0 1 201.258 236.467 A 1.804 1.804 0 0 1 201.361 236.411 A 1.898 1.898 0 0 1 201.984 236.226 A 2.399 2.399 0 0 1 202.281 236.208 Q 203.176 236.208 203.624 236.634 A 1.287 1.287 0 0 1 203.941 237.132 Q 204.017 237.339 204.049 237.597 A 3.197 3.197 0 0 1 204.071 237.985 L 204.071 241.169 Z M 197.302 236.288 L 198.99 236.288 L 198.99 236.756 L 198.086 236.863 Q 198.191 236.994 198.277 237.193 A 2.279 2.279 0 0 1 198.309 237.27 A 1.422 1.422 0 0 1 198.393 237.61 A 1.826 1.826 0 0 1 198.407 237.838 A 1.695 1.695 0 0 1 198.329 238.363 A 1.371 1.371 0 0 1 197.917 238.983 Q 197.427 239.41 196.572 239.41 A 2.376 2.376 0 0 1 196.297 239.395 A 2.006 2.006 0 0 1 196.162 239.374 A 1.315 1.315 0 0 0 195.95 239.512 Q 195.841 239.6 195.777 239.701 A 0.556 0.556 0 0 0 195.69 240.002 Q 195.69 240.203 195.855 240.298 A 0.519 0.519 0 0 0 195.97 240.346 Q 196.136 240.394 196.421 240.394 L 197.284 240.394 A 3.026 3.026 0 0 1 197.744 240.427 Q 197.984 240.464 198.178 240.543 A 1.336 1.336 0 0 1 198.502 240.728 Q 198.928 241.062 198.928 241.699 Q 198.928 242.509 198.278 242.935 Q 197.824 243.231 197.081 243.321 A 5.859 5.859 0 0 1 196.381 243.36 A 4.142 4.142 0 0 1 195.825 243.325 Q 195.261 243.249 194.904 243.004 A 1.178 1.178 0 0 1 194.524 242.592 Q 194.403 242.366 194.388 242.08 A 1.561 1.561 0 0 1 194.386 241.997 A 1.13 1.13 0 0 1 194.671 241.227 Q 194.956 240.902 195.472 240.786 Q 195.285 240.701 195.158 240.523 A 0.685 0.685 0 0 1 195.032 240.153 A 0.849 0.849 0 0 1 195.031 240.109 A 0.845 0.845 0 0 1 195.074 239.837 A 0.749 0.749 0 0 1 195.174 239.642 A 1.058 1.058 0 0 1 195.313 239.484 Q 195.388 239.414 195.483 239.346 A 2.322 2.322 0 0 1 195.623 239.254 A 1.296 1.296 0 0 1 195.061 238.803 A 1.606 1.606 0 0 1 195.007 238.724 A 1.528 1.528 0 0 1 194.772 237.988 A 1.865 1.865 0 0 1 194.768 237.869 A 2.136 2.136 0 0 1 194.825 237.364 A 1.405 1.405 0 0 1 195.249 236.634 Q 195.73 236.199 196.612 236.199 A 2.833 2.833 0 0 1 196.987 236.223 A 2.158 2.158 0 0 1 197.302 236.288 Z M 207.834 240.559 L 207.834 241.125 A 0.727 0.727 0 0 1 207.748 241.159 Q 207.656 241.189 207.524 241.213 A 2.765 2.765 0 0 1 207.48 241.22 Q 207.262 241.256 207.084 241.258 A 1.896 1.896 0 0 1 207.059 241.258 A 1.931 1.931 0 0 1 206.49 241.182 Q 205.643 240.92 205.643 239.766 L 205.643 236.863 L 204.944 236.863 L 204.944 236.507 L 205.643 236.199 L 205.955 235.157 L 206.382 235.157 L 206.382 236.288 L 207.798 236.288 L 207.798 236.863 L 206.382 236.863 L 206.382 239.735 A 1.489 1.489 0 0 0 206.404 239.997 Q 206.429 240.14 206.486 240.254 A 0.717 0.717 0 0 0 206.592 240.412 A 0.687 0.687 0 0 0 207.014 240.637 A 0.988 0.988 0 0 0 207.166 240.648 A 2.428 2.428 0 0 0 207.522 240.623 A 2.236 2.236 0 0 0 207.544 240.619 A 4 4 0 0 0 207.651 240.601 Q 207.76 240.58 207.834 240.559 Z M 191.776 236.253 L 191.674 236.939 Q 191.421 236.883 191.219 236.874 A 1.734 1.734 0 0 0 191.139 236.872 A 1.281 1.281 0 0 0 190.193 237.28 A 1.752 1.752 0 0 0 190.126 237.353 A 1.688 1.688 0 0 0 189.719 238.301 A 2.244 2.244 0 0 0 189.705 238.551 L 189.705 241.169 L 188.966 241.169 L 188.966 236.288 L 189.576 236.288 L 189.661 237.192 L 189.696 237.192 Q 189.968 236.716 190.351 236.458 A 1.474 1.474 0 0 1 191.193 236.199 A 3.394 3.394 0 0 1 191.496 236.212 A 2.477 2.477 0 0 1 191.776 236.253 Z M 193.428 236.288 L 193.428 241.169 L 192.689 241.169 L 192.689 236.288 L 193.428 236.288 Z M 197.048 241.058 L 196.162 241.058 Q 195.794 241.058 195.545 241.187 A 0.866 0.866 0 0 0 195.379 241.298 A 0.779 0.779 0 0 0 195.123 241.74 A 1.183 1.183 0 0 0 195.098 241.988 A 0.742 0.742 0 0 0 195.147 242.264 Q 195.217 242.441 195.388 242.561 A 0.867 0.867 0 0 0 195.432 242.59 A 1.184 1.184 0 0 0 195.723 242.714 Q 195.998 242.794 196.383 242.794 A 3.848 3.848 0 0 0 196.389 242.794 A 4.969 4.969 0 0 0 196.875 242.772 Q 197.446 242.716 197.768 242.516 A 1.078 1.078 0 0 0 198.018 242.307 A 0.808 0.808 0 0 0 198.215 241.761 A 1 1 0 0 0 198.197 241.563 Q 198.148 241.323 197.97 241.211 A 0.701 0.701 0 0 0 197.804 241.139 Q 197.627 241.084 197.347 241.066 A 4.704 4.704 0 0 0 197.048 241.058 Z M 195.499 237.851 A 1.443 1.443 0 0 0 195.528 238.154 Q 195.592 238.448 195.788 238.626 Q 196.049 238.863 196.494 238.886 A 1.903 1.903 0 0 0 196.594 238.889 Q 197.676 238.889 197.676 237.838 Q 197.676 236.738 196.581 236.738 A 1.551 1.551 0 0 0 196.265 236.768 Q 195.968 236.83 195.779 237.019 Q 195.541 237.257 195.505 237.691 A 1.945 1.945 0 0 0 195.499 237.851 Z M 192.637 234.83 A 0.819 0.819 0 0 0 192.627 234.966 A 0.873 0.873 0 0 0 192.63 235.049 Q 192.638 235.124 192.658 235.185 A 0.382 0.382 0 0 0 192.751 235.338 A 0.415 0.415 0 0 0 192.901 235.433 A 0.47 0.47 0 0 0 193.063 235.46 Q 193.241 235.46 193.37 235.338 A 0.361 0.361 0 0 0 193.441 235.244 Q 193.473 235.184 193.487 235.106 A 0.765 0.765 0 0 0 193.499 234.966 Q 193.499 234.844 193.469 234.753 A 0.373 0.373 0 0 0 193.37 234.596 Q 193.241 234.476 193.063 234.476 A 0.564 0.564 0 0 0 193.026 234.477 A 0.427 0.427 0 0 0 192.751 234.594 Q 192.663 234.678 192.637 234.83 Z" id="right_labelLayer" stroke="#777777" fill="#777777" style="stroke:#777777;fill:#777777" vector-effect="non-scaling-stroke"/><path d="M 275.2 0 L 275.2 153.6 L 396.8 153.6 L 396.8 0 L 275.2 0 Z" id="bottom_outsideCutPath" stroke="#FF0000" stroke-width="0.1" style="stroke:#FF0000;stroke-width:0.1" vector-effect="non-scaling-stroke"/><path d="M 376.007 85.92 L 374.036 85.92 L 374.036 77.453 A 5.815 5.815 0 0 0 373.977 76.598 Q 373.912 76.161 373.775 75.809 A 2.382 2.382 0 0 0 373.371 75.119 A 2.074 2.074 0 0 0 372.406 74.496 Q 371.928 74.342 371.304 74.342 Q 370.014 74.342 369.196 74.861 A 2.61 2.61 0 0 0 368.585 75.398 A 3.257 3.257 0 0 0 368.033 76.398 Q 367.709 77.307 367.706 78.632 A 10.882 10.882 0 0 0 367.706 78.652 L 367.706 85.92 L 365.735 85.92 L 365.735 77.453 A 5.815 5.815 0 0 0 365.676 76.598 Q 365.611 76.161 365.474 75.809 A 2.382 2.382 0 0 0 365.07 75.119 Q 364.494 74.446 363.358 74.356 A 4.616 4.616 0 0 0 362.992 74.342 A 4.896 4.896 0 0 0 361.979 74.439 Q 361.354 74.572 360.889 74.882 A 2.584 2.584 0 0 0 360.278 75.452 Q 359.498 76.458 359.425 78.63 A 13.724 13.724 0 0 0 359.417 79.092 L 359.417 85.92 L 357.446 85.92 L 357.446 72.905 L 359.049 72.905 L 359.37 74.686 L 359.465 74.686 A 3.874 3.874 0 0 1 361.038 73.202 A 4.68 4.68 0 0 1 362.887 72.683 A 5.653 5.653 0 0 1 363.312 72.667 A 6.454 6.454 0 0 1 364.765 72.818 Q 366.61 73.245 367.302 74.876 L 367.397 74.876 A 4.116 4.116 0 0 1 368.948 73.337 A 4.945 4.945 0 0 1 369.084 73.261 Q 370.188 72.667 371.601 72.667 A 6.852 6.852 0 0 1 372.844 72.772 Q 374.145 73.013 374.908 73.801 Q 375.708 74.627 375.926 76.173 A 9.041 9.041 0 0 1 376.007 77.429 L 376.007 85.92 Z M 297.964 84.245 L 297.822 84.245 L 297.406 85.92 L 295.993 85.92 L 295.993 67.442 L 297.964 67.442 L 297.964 71.931 Q 297.964 73.39 297.875 74.561 A 24.656 24.656 0 0 1 297.869 74.638 L 297.964 74.638 Q 299.342 72.691 302.049 72.691 A 6.025 6.025 0 0 1 303.745 72.917 A 4.51 4.51 0 0 1 306.033 74.443 Q 307.17 75.845 307.396 78.181 A 12.653 12.653 0 0 1 307.452 79.4 A 11.558 11.558 0 0 1 307.299 81.345 Q 307.122 82.381 306.74 83.213 A 5.541 5.541 0 0 1 306.022 84.382 A 4.667 4.667 0 0 1 302.705 86.126 A 6.686 6.686 0 0 1 302.049 86.157 A 5.979 5.979 0 0 1 300.547 85.974 A 5.202 5.202 0 0 1 299.728 85.688 Q 298.677 85.219 297.964 84.245 Z M 331.571 84.293 L 331.571 85.801 A 1.939 1.939 0 0 1 331.341 85.892 Q 331.095 85.974 330.744 86.036 A 7.371 7.371 0 0 1 330.627 86.056 Q 330.044 86.15 329.571 86.157 A 5.052 5.052 0 0 1 329.504 86.157 Q 326.492 86.157 325.883 83.627 A 6.196 6.196 0 0 1 325.728 82.179 L 325.728 74.437 L 323.864 74.437 L 323.864 73.487 L 325.728 72.667 L 326.559 69.888 L 327.699 69.888 L 327.699 72.905 L 331.476 72.905 L 331.476 74.437 L 327.699 74.437 L 327.699 82.096 A 3.969 3.969 0 0 0 327.757 82.793 Q 327.878 83.473 328.257 83.901 Q 328.816 84.53 329.789 84.53 A 6.474 6.474 0 0 0 330.738 84.462 A 5.965 5.965 0 0 0 330.799 84.453 Q 331.263 84.379 331.544 84.3 A 2.959 2.959 0 0 0 331.571 84.293 Z M 340.156 84.293 L 340.156 85.801 A 1.939 1.939 0 0 1 339.926 85.892 Q 339.681 85.974 339.33 86.036 A 7.371 7.371 0 0 1 339.212 86.056 Q 338.63 86.15 338.157 86.157 A 5.052 5.052 0 0 1 338.09 86.157 Q 335.078 86.157 334.468 83.627 A 6.196 6.196 0 0 1 334.314 82.179 L 334.314 74.437 L 332.449 74.437 L 332.449 73.487 L 334.314 72.667 L 335.145 69.888 L 336.285 69.888 L 336.285 72.905 L 340.061 72.905 L 340.061 74.437 L 336.285 74.437 L 336.285 82.096 A 3.969 3.969 0 0 0 336.342 82.793 Q 336.464 83.473 336.843 83.901 Q 337.401 84.53 338.375 84.53 A 6.474 6.474 0 0 0 339.323 84.462 A 5.965 5.965 0 0 0 339.384 84.453 Q 339.849 84.379 340.13 84.3 A 2.959 2.959 0 0 0 340.156 84.293 Z M 321.949 81.381 A 10.182 10.182 0 0 0 322.13 79.4 A 11.57 11.57 0 0 0 322.126 79.087 Q 322.096 78.004 321.862 77.084 A 6.138 6.138 0 0 0 320.521 74.484 Q 318.912 72.667 316.181 72.667 A 7.656 7.656 0 0 0 314.805 72.785 A 5.214 5.214 0 0 0 311.763 74.443 A 5.446 5.446 0 0 0 311.094 75.37 Q 310.172 76.977 310.172 79.4 A 9.861 9.861 0 0 0 310.296 80.998 A 7.292 7.292 0 0 0 310.908 82.987 A 6.479 6.479 0 0 0 311.052 83.268 A 5.337 5.337 0 0 0 312.998 85.338 A 5.489 5.489 0 0 0 314.258 85.898 A 6.33 6.33 0 0 0 316.097 86.157 A 7.655 7.655 0 0 0 317.434 86.045 A 5.255 5.255 0 0 0 320.527 84.37 A 5.499 5.499 0 0 0 321.182 83.47 Q 321.716 82.557 321.949 81.381 Z M 353.81 81.381 A 10.182 10.182 0 0 0 353.991 79.4 A 11.57 11.57 0 0 0 353.986 79.087 Q 353.957 78.004 353.722 77.084 A 6.138 6.138 0 0 0 352.382 74.484 Q 350.772 72.667 348.041 72.667 A 7.656 7.656 0 0 0 346.666 72.785 A 5.214 5.214 0 0 0 343.624 74.443 A 5.446 5.446 0 0 0 342.955 75.37 Q 342.032 76.977 342.032 79.4 A 9.861 9.861 0 0 0 342.156 80.998 A 7.292 7.292 0 0 0 342.769 82.987 A 6.479 6.479 0 0 0 342.912 83.268 A 5.337 5.337 0 0 0 344.859 85.338 A 5.489 5.489 0 0 0 346.119 85.898 A 6.33 6.33 0 0 0 347.958 86.157 A 7.655 7.655 0 0 0 349.295 86.045 A 5.255 5.255 0 0 0 352.387 84.37 A 5.499 5.499 0 0 0 353.042 83.47 Q 353.576 82.557 353.81 81.381 Z M 312.214 79.4 Q 312.214 81.894 313.212 83.2 Q 314.209 84.507 316.145 84.507 A 4.579 4.579 0 0 0 317.353 84.356 A 3.186 3.186 0 0 0 319.084 83.206 A 4.232 4.232 0 0 0 319.743 81.923 Q 319.937 81.33 320.022 80.606 A 10.384 10.384 0 0 0 320.087 79.4 Q 320.087 76.918 319.084 75.63 A 3.243 3.243 0 0 0 317.068 74.427 A 4.972 4.972 0 0 0 316.121 74.342 A 4.691 4.691 0 0 0 314.953 74.478 A 3.14 3.14 0 0 0 313.2 75.612 A 4.076 4.076 0 0 0 312.566 76.836 Q 312.379 77.399 312.292 78.088 A 10.417 10.417 0 0 0 312.214 79.4 Z M 344.075 79.4 Q 344.075 81.894 345.072 83.2 Q 346.07 84.507 348.006 84.507 A 4.579 4.579 0 0 0 349.214 84.356 A 3.186 3.186 0 0 0 350.945 83.206 A 4.232 4.232 0 0 0 351.604 81.923 Q 351.797 81.33 351.882 80.606 A 10.384 10.384 0 0 0 351.948 79.4 Q 351.948 76.918 350.945 75.63 A 3.243 3.243 0 0 0 348.929 74.427 A 4.972 4.972 0 0 0 347.982 74.342 A 4.691 4.691 0 0 0 346.814 74.478 A 3.14 3.14 0 0 0 345.061 75.612 A 4.076 4.076 0 0 0 344.427 76.836 Q 344.24 77.399 344.152 78.088 A 10.417 10.417 0 0 0 344.075 79.4 Z M 301.764 74.342 A 5.539 5.539 0 0 0 300.691 74.438 Q 300.08 74.559 299.616 74.831 A 2.622 2.622 0 0 0 298.855 75.499 Q 298.072 76.517 297.977 78.758 A 15.188 15.188 0 0 0 297.964 79.4 Q 297.964 82.143 298.879 83.325 Q 299.698 84.384 301.406 84.494 A 6.338 6.338 0 0 0 301.812 84.507 A 3.93 3.93 0 0 0 302.928 84.357 A 2.835 2.835 0 0 0 304.519 83.183 Q 305.41 81.858 305.41 79.377 A 11.646 11.646 0 0 0 305.339 78.05 Q 305.172 76.598 304.61 75.722 A 3.27 3.27 0 0 0 304.519 75.588 A 2.875 2.875 0 0 0 302.689 74.43 A 4.559 4.559 0 0 0 301.764 74.342 Z" id="bottom_labelLayer" stroke="#777777" fill="#777777" style="stroke:#777777;fill:#777777" vector-effect="non-scaling-stroke"/></g></svg>